<?xml version="1.0" standalone="no"?>
<!DOCTYPE svg PUBLIC "-//W3C//DTD SVG 1.1//EN" "http://www.w3.org/Graphics/SVG/1.1/DTD/svg11.dtd" >
<svg xmlns="http://www.w3.org/2000/svg">
<metadata>Generated by IcoMoon</metadata>
<defs>
<font id="icomoon" horiz-adv-x="1024">
<font-face units-per-em="1024" ascent="960" descent="-64" />
<missing-glyph horiz-adv-x="1024" />
<glyph unicode="&#x20;" horiz-adv-x="512" d="" />
<glyph unicode="&#xe900;" glyph-name="learn-more-01" d="M313.184 689.344c10.688 100.288 95.744 178.656 198.816 178.656 102.496 0 187.136-77.536 198.56-177.024l63.552 7.232c-15.008 131.36-126.784 233.792-262.112 233.792-136 0-248.224-103.392-262.432-235.68l31.808-3.456 31.808-3.52zM912 434.368v137.632c0 70.688-49.312 128-120 128l-0.928-0.096-283.072-31.904-294.016 32c-70.688 0-134.016-57.312-134.016-128v-148.256c-33.152-17.408-56-51.712-56-91.744s22.848-74.336 56-91.744v-116.256c0-70.688 65.312-128 136-128l248-27.232v-4.768h64.032v2.272l262.016 29.728c70.688 0 121.984 57.312 121.984 128v105.632c49.792 7.744 88 50.4 88 102.368s-38.208 94.624-88 102.368zM231.072 59.584l-3.52 0.416h-3.552c-35.296 0-80 28.704-80 64v105.632c49.792 7.744 88 50.4 88 102.368s-38.208 94.624-88 102.368v137.632c0 34.304 35.136 62.4 69.056 63.936l250.944-27.52v-574.688l-232.928 25.856zM848 124c0-35.296-12.704-64-48-64h-3.52l-3.52-0.416-264.96-29.408v575.776l266.912 29.984c33.952-1.536 53.056-29.632 53.056-63.936v-148.256c-33.12-17.408-56-51.712-56-91.744s22.88-74.336 56-91.744v-116.256z" />
<glyph unicode="&#xe901;" glyph-name="basics-icon-01" horiz-adv-x="1650" d="M851.172 183.296v448.057c0 14.507-11.776 26.283-26.283 26.283s-26.34-11.776-26.34-26.283v-448.057c0-14.507 11.833-26.283 26.34-26.283s26.283 11.776 26.283 26.283zM1614.052 828.871c-55.637 0-124.871 24.007-198.258 49.436-92.956 32.142-198.258 68.665-307.484 68.665-126.407 0-203.492-55.41-245.931-101.888-15.872-17.351-28.16-34.759-37.49-50.176-9.33 15.417-21.618 32.825-37.49 50.233-42.439 46.478-119.524 101.888-245.931 101.888-109.227 0-214.585-36.523-307.484-68.665-73.387-25.429-142.677-49.436-198.258-49.436-14.507 0-26.283-11.719-26.283-26.283v-722.148c0-14.564 11.833-26.283 26.283-26.283 64.455 0 137.842 25.316 215.495 52.281 88.974 30.834 189.838 65.707 290.247 65.707 86.073 0 155.762-28.501 207.076-84.708 9.785-10.695 26.453-11.435 37.148-1.65 10.752 9.785 11.492 26.453 1.707 37.148-42.439 46.421-119.58 101.831-245.931 101.831-109.227 0-214.528-36.523-307.484-68.608-62.18-21.561-121.458-42.098-171.975-47.844v669.298c57.856 5.461 121.913 27.648 189.212 50.972 88.974 30.777 189.838 65.707 290.247 65.707 202.98 0 256.114-161.223 258.276-167.936 3.413-11.036 13.596-18.603 25.145-18.603s21.732 7.566 25.088 18.603c0.512 1.65 53.988 167.936 258.276 167.936 100.466 0 201.216-34.873 290.304-65.65 67.3-23.324 131.413-45.568 189.156-50.972v-669.355c-50.46 5.746-109.796 26.283-171.918 47.844-92.956 32.085-198.258 68.608-307.484 68.608-126.407 0-203.492-55.41-245.931-101.831-9.785-10.752-9.045-27.364 1.707-37.148s27.364-9.045 37.148 1.65c51.314 56.206 121.003 84.708 207.076 84.708 100.466 0 201.216-34.873 290.304-65.764 77.653-26.908 151.040-52.224 215.495-52.224 14.507 0 26.34 11.719 26.34 26.283v722.091c-0.057 14.564-11.89 26.283-26.396 26.283zM1614.052 1.536c-55.637 0-124.871 24.007-198.258 49.38-92.956 32.199-198.258 68.722-307.484 68.722-118.67 0-193.934-48.868-237.796-93.355h-91.25c-43.861 44.43-119.125 93.355-237.796 93.355-109.227 0-214.528-36.523-307.484-68.722-73.387-25.372-142.677-49.38-198.258-49.38-14.507 0-26.283-11.776-26.283-26.283 0-14.564 11.833-26.283 26.283-26.283 64.455 0 137.842 25.316 215.495 52.281 88.974 30.834 189.838 65.707 290.247 65.707 86.073 0 155.762-28.501 207.076-84.708 4.949-5.461 12.004-8.533 19.399-8.533h113.835c7.452 0 14.45 3.129 19.456 8.533 51.314 56.206 121.003 84.708 207.076 84.708 100.466 0 201.216-34.873 290.304-65.707 77.653-26.965 151.040-52.281 215.495-52.281 14.507 0 26.34 11.719 26.34 26.283-0.057 14.507-11.89 26.283-26.396 26.283zM541.468 457.33c71.282 0 126.862-17.579 169.472-41.244v339.911c-39.14 28.331-93.867 50.688-169.472 50.688-100.409 0-201.273-34.873-290.247-65.764-41.131-14.222-81.067-28.046-119.068-37.888v-347.42c32.256 8.988 66.56 20.935 101.831 33.109 92.9 32.142 198.258 68.608 307.484 68.608zM541.468 390.77c-110.649 0-216.633-36.693-310.329-69.12-35.556-12.345-69.177-24.007-101.319-32.996l4.722-16.896c32.654 9.159 68.096 21.447 102.571 33.394 92.217 31.915 196.722 68.039 304.356 68.039 61.668 0 117.305-13.54 165.148-40.164l8.533 15.36c-50.517 28.103-108.999 42.382-173.682 42.382zM231.083 243.541c-35.556-12.345-69.177-23.95-101.319-32.996l4.722-16.839c32.654 9.159 68.096 21.447 102.571 33.394 92.217 31.915 196.722 67.982 304.356 67.982 61.668 0 117.305-13.483 165.148-40.107l8.533 15.303c-50.517 28.16-108.999 42.382-173.682 42.382-110.592 0-216.576-36.636-310.329-69.12zM1407.033 415.801c34.361-11.89 69.803-24.235 102.628-33.394l7.111 25.259c-32.028 8.988-65.593 20.651-101.319 32.996-93.81 32.484-200.192 69.348-311.524 69.348-65.479 0-124.644-14.45-175.9-43.008l12.857-22.926c47.218 26.283 102.116 39.595 163.044 39.595 106.894 0 211.058-36.068 303.104-67.868zM940.885 347.591c47.218 26.283 102.116 39.595 163.044 39.595 106.894 0 211.058-36.068 303.104-67.868 34.361-11.89 69.803-24.235 102.628-33.394l7.111 25.259c-32.028 8.988-65.593 20.651-101.319 32.996-93.81 32.484-200.192 69.348-311.524 69.348-65.479 0-124.644-14.45-175.9-43.008l12.857-22.926zM940.885 251.108c47.218 26.283 102.116 39.652 163.044 39.652 106.894 0 211.058-36.068 303.104-67.925 34.361-11.89 69.803-24.178 102.628-33.394l7.111 25.316c-32.028 8.988-65.593 20.651-101.319 32.996-93.81 32.427-200.192 69.348-311.524 69.348-65.479 0-124.644-14.507-175.9-43.008l12.857-22.983z" />
<glyph unicode="&#xe902;" glyph-name="key-issues-icon-01" d="M921.685 960h-819.2c-56.32 0-101.931-46.080-101.931-102.4l-0.469-921.6 204.843 204.843h716.757c56.32 0 102.4 46.080 102.4 102.315v614.443c0 56.32-46.080 102.4-102.4 102.4zM614.485 345.6h-409.643v102.4h409.685v-102.4zM819.243 499.157h-614.315v102.443h614.315v-102.443zM819.243 652.843h-614.315v102.315h614.315v-102.315z" />
<glyph unicode="&#xe903;" glyph-name="left-arrow" horiz-adv-x="374" d="M316.741-54.036l8.556 4.588-264.674 493.086 264.674 493.086-8.556 4.588-267.136-497.674z" />
<glyph unicode="&#xe904;" glyph-name="navigation-icon" horiz-adv-x="614" d="M351.983 35.055c117.897 125.474 214.494 328.704 237.090 499.166 16.316 123.836-18.364 262.076-117.76 337.442-117.419 89.020-303.241 57.958-395.332-57.003-158.993-198.519 19.251-426.803 108.339-611.396 29.969-62.054 45.602-126.020 37.478-193.946-3.618-30.652 29.218-52.634 55.433-36.386 27.989 17.271 52.292 38.366 74.752 62.123v0z" />
<glyph unicode="&#xe905;" glyph-name="right-arrow" horiz-adv-x="374" d="M58.161-54.036l-8.556 4.588 264.674 493.086-264.674 493.086 8.556 4.588 267.136-497.674z" />
<glyph unicode="&#xe906;" glyph-name="closed-quotations" horiz-adv-x="1425" d="M1160.326 818.243c-21.459 22.84-44.789 42.963-71.546 59.481-25.021 15.583-56.454-5.476-52.936-34.816 7.747-65.002-7.213-126.175-35.929-185.567-85.215-176.573-255.733-394.952-103.647-584.927 88.109-110.058 265.928-139.709 378.257-54.539 95.143 72.125 128.267 204.31 112.595 322.738-21.549 163.172-113.887 357.688-226.794 477.629v0zM358.934 862.765c-21.459 22.84-44.744 42.963-71.546 59.481-25.021 15.583-56.409-5.476-52.936-34.816 7.747-65.002-7.213-126.175-35.929-185.567-85.215-176.573-255.733-394.952-103.647-584.927 88.109-110.058 265.928-139.709 378.257-54.539 95.143 72.125 128.267 204.31 112.595 322.738-21.549 163.172-113.887 357.688-226.794 477.629v0z" />
<glyph unicode="&#xe907;" glyph-name="open-quotations" horiz-adv-x="1425" d="M264.415 77.846c21.459-22.84 44.789-42.963 71.546-59.481 25.021-15.583 56.454 5.476 52.936 34.816-7.747 65.002 7.213 126.175 35.929 185.567 85.215 176.573 255.733 394.952 103.647 584.927-88.019 110.013-265.884 139.665-378.212 54.495-95.143-72.125-128.267-204.31-112.595-322.738 21.549-163.128 113.887-357.643 226.749-477.585v0zM1065.806 33.325c21.459-22.84 44.789-42.963 71.546-59.481 25.021-15.583 56.454 5.476 52.936 34.816-7.747 65.002 7.213 126.175 35.929 185.567 85.215 176.573 255.733 394.952 103.647 584.927-88.109 110.058-265.928 139.709-378.257 54.539-95.143-72.125-128.267-204.31-112.595-322.738 21.593-163.172 113.931-357.688 226.794-477.629v0z" />
<glyph unicode="&#xe908;" glyph-name="menu" horiz-adv-x="1385" d="M36.201-4.367v61.44h1313.069v-61.44h-1313.069zM36.201 838.987v61.32h1313.069v-61.38h-1313.069zM36.201 417.34v61.32h1313.069v-61.38h-1313.069z" />
<glyph unicode="&#xe909;" glyph-name="search-icon" d="M664.86 798.948c-138.866 138.866-364.999 138.866-503.865 0-138.752-138.923-138.752-364.828 0-503.751 123.79-123.676 316.359-136.818 455.111-40.277 2.901-13.824 9.671-27.136 20.309-37.831l202.126-202.24c29.582-29.412 77.198-29.412 106.439 0 29.582 29.468 29.582 77.028 0 106.439l-202.126 202.24c-10.695 10.752-24.007 17.408-37.774 20.309 96.54 138.923 83.285 331.492-40.22 455.111v0zM600.86 359.026c-103.538-103.595-272.327-103.595-375.865 0-103.652 103.822-103.652 272.498 0 376.149 103.538 103.652 272.327 103.652 375.865 0 103.652-103.708 103.652-272.384 0-376.149v0z" />
<glyph unicode="&#xe90a;" glyph-name="arrow-down" horiz-adv-x="3672" d="M1835.255-35.681l-1809.196 971.105 16.702 31.108 1792.494-962.136 1792.459 962.136 16.702-31.108z" />
<glyph unicode="&#xe90b;" glyph-name="logi-logo" horiz-adv-x="4148" d="M807.816 665.544h-38.404v-224.798h100.309v35.263h-61.905zM942.424 435.368c13.355 0 24.335 3.347 32.863 9.956 8.596 6.729 15.179 15.627 19.86 26.865l-26.357 15.257c-2.28-5.524-5.438-10.386-9.345-14.603-3.924-4.277-9.199-6.376-15.773-6.376-4.604 0-8.682 1.213-12.193 3.657-3.476 2.427-6.437 5.748-8.872 9.853-2.452 4.122-4.311 9.001-5.55 14.586-1.282 5.619-1.928 11.617-1.928 17.959h84.175v13.648c0 11.634-1.076 22.408-3.175 32.398-2.134 9.947-5.473 18.561-10.025 25.858-4.569 7.314-10.49 13.071-17.787 17.305-7.288 4.268-16.16 6.359-26.504 6.359-9.336 0-17.752-2.048-25.247-6.204-7.529-4.122-14.035-10.008-19.516-17.589-5.516-7.658-9.758-16.788-12.753-27.476-2.917-10.705-4.423-22.502-4.423-35.401 0-27.743 5.714-49.006 17.176-63.824 11.376-14.835 26.564-22.227 45.374-22.227zM917.048 551.441c1.041 4.75 2.582 9.173 4.578 13.312 1.988 4.105 4.681 7.572 7.925 10.326 3.313 2.719 7.288 4.105 11.944 4.105 8.046 0 13.949-3.743 17.752-11.273 3.821-7.512 5.74-17.288 5.74-29.378h-49.539c-0.009 3.838 0.534 8.123 1.601 12.908zM1066.896 463.954h0.637c2.53-8.046 6.54-14.852 12.030-20.342 5.481-5.464 13.458-8.235 23.999-8.235 8.235 0 15.661 2.22 22.175 6.643 6.531 4.44 12.038 10.653 16.436 18.595 4.449 7.908 7.813 17.227 10.128 27.958 2.341 10.662 3.485 22.261 3.485 34.747 0 12.245-1.11 23.586-3.304 33.947-2.229 10.369-5.567 19.336-9.982 26.874-4.406 7.478-9.904 13.346-16.461 17.58-6.523 4.268-14.009 6.359-22.476 6.359-8.812 0-16.315-2.435-22.408-7.314-6.135-4.87-10.335-10.997-12.675-18.406h-0.611v98.442h-35.892v-240.046h34.928v23.199zM1068.342 543.292c1.11 6.807 2.84 12.658 5.060 17.666 2.211 4.931 5.043 8.889 8.407 11.711 3.373 2.883 7.28 4.294 11.746 4.294 4.63 0 8.605-1.411 11.892-4.294 3.304-2.822 5.972-6.781 8.123-11.711 2.082-5.008 3.717-10.86 4.741-17.666 1.067-6.764 1.609-13.932 1.609-21.556 0-7.633-0.542-14.783-1.609-21.461-1.033-6.652-2.659-12.469-4.741-17.46-2.151-4.974-4.827-8.88-8.123-11.694-3.287-2.909-7.263-4.311-11.892-4.311-4.466 0-8.381 1.403-11.746 4.311-3.365 2.814-6.196 6.721-8.407 11.694-2.22 4.991-3.95 10.808-5.060 17.46-1.187 6.678-1.781 13.828-1.781 21.461 0.009 7.624 0.602 14.792 1.781 21.556zM1275.775 589.484c-4.182 6.041-9.784 10.662-16.651 13.82-6.884 3.192-15.291 4.776-25.239 4.776-8.889 0-17.89-2.048-26.977-6.204-9.13-4.122-16.642-9.896-22.562-17.313l17.158-22.511c3.606 4.655 7.882 8.407 12.856 11.264s10.541 4.285 16.677 4.285c7.194 0 12.951-2.375 17.313-7.142 4.337-4.733 6.514-12.538 6.514-23.32v-5.111h-8.872c-7.658 0-15.437-0.8-23.371-2.392-7.925-1.566-15.119-4.475-21.564-8.708-6.48-4.251-11.746-9.99-15.919-17.296-4.096-7.323-6.161-16.685-6.161-28.104 0-8.906 1.239-16.436 3.821-22.709 2.513-6.247 5.74-11.35 9.672-15.24 3.933-3.907 8.269-6.712 13.183-8.416 4.819-1.704 9.62-2.538 14.233-2.538 10.188 0 18.346 2.487 24.499 7.452 6.127 4.974 10.369 11.909 12.684 20.798h0.645v-24.146h29.842v96.239c0 11.221-0.904 21.263-2.685 30.161-1.841 8.872-4.87 16.341-9.096 22.356zM1255.794 507.418c0-4.853-0.456-9.896-1.42-15.059-0.964-5.197-2.452-9.879-4.432-14.138-2.014-4.234-4.707-7.736-8.106-10.464-3.373-2.745-7.529-4.165-12.391-4.165-4.853 0-9.156 2.022-12.865 6.049-3.683 4.036-5.567 10.257-5.567 18.75 0 5.731 0.99 10.403 2.865 14.112 1.953 3.692 4.483 6.634 7.65 8.734 3.167 2.134 6.815 3.562 10.954 4.277 4.113 0.766 8.399 1.127 12.839 1.127h10.472v-9.225zM1439.013 587.763c-2.952 6.144-7.159 11.057-12.581 14.766-5.378 3.692-12.538 5.559-21.409 5.559-10.154 0-18.664-3.029-25.548-9.044-6.893-6.032-11.772-13.407-14.775-22.072h-0.611v25.703h-35.281v-161.921h35.883v93.657c0 12.297 2.384 22.433 7.134 30.522 4.776 8.011 11.195 12.030 19.258 12.030 4.208 0 7.65-1.007 10.266-3.020 2.659-1.996 4.69-4.724 6.049-8.072 1.403-3.408 2.298-7.142 2.711-11.29 0.43-4.122 0.611-8.209 0.611-12.219v-101.626h35.9v101.626c0 8.252-0.542 16.358-1.618 24.283-1.024 7.942-3.038 14.981-5.989 21.117zM1541.524 435.368c13.398 0 24.301 3.347 32.854 9.956 8.605 6.729 15.214 15.627 19.843 26.865l-26.28 15.257c-2.375-5.524-5.507-10.386-9.44-14.603-3.872-4.277-9.121-6.376-15.687-6.376-4.69 0-8.708 1.213-12.211 3.657-3.511 2.427-6.454 5.748-8.923 9.853-2.435 4.122-4.277 9.001-5.55 14.586-1.248 5.619-1.876 11.617-1.876 17.959h84.157v13.648c0 11.634-1.076 22.408-3.201 32.398-2.108 9.947-5.438 18.561-10.025 25.858-4.561 7.314-10.481 13.071-17.795 17.305-7.271 4.268-16.109 6.359-26.461 6.359-9.345 0-17.744-2.048-25.256-6.204-7.538-4.122-14.009-10.008-19.516-17.589-5.516-7.658-9.732-16.788-12.727-27.476-2.96-10.705-4.406-22.502-4.406-35.401 0-27.743 5.705-49.006 17.141-63.824 11.419-14.835 26.538-22.227 45.357-22.227zM1516.131 551.441c1.093 4.75 2.564 9.173 4.621 13.312 1.988 4.105 4.638 7.572 7.917 10.326 3.347 2.719 7.288 4.105 11.918 4.105 8.037 0 13.983-3.743 17.778-11.273 3.829-7.512 5.765-17.288 5.765-29.378h-49.548c-0.009 3.838 0.473 8.123 1.549 12.908zM1664.422 464.272c-6.798 0-12.701 1.592-17.752 4.75-5.12 3.175-9.56 6.987-13.372 11.419l-19.37-22.846c6.11-6.772 13.622-12.185 22.408-16.186 8.769-4.027 18.234-6.032 28.397-6.032 6.781 0 13.269 1.058 19.525 3.158 6.23 2.117 11.806 5.387 16.702 9.844 4.827 4.457 8.7 10.042 11.522 16.694 2.917 6.652 4.311 14.405 4.311 23.328 0 7.392-1.119 13.802-3.322 19.172-2.237 5.438-5.172 10.042-8.88 13.846-3.726 3.803-7.848 6.918-12.391 9.354-4.552 2.418-9.13 4.5-13.802 6.204-8.287 2.96-14.31 5.869-18.114 8.743-3.803 2.857-5.714 7.452-5.714 13.802 0 6.135 1.85 11.075 5.43 14.775 3.571 3.7 8.011 5.559 13.329 5.559 5.705 0 10.782-1.291 15.214-3.838 4.423-2.521 8.149-5.826 11.075-9.853l19.095 23.216c-5.524 5.481-12.193 9.982-19.998 13.484-7.848 3.502-16.642 5.223-26.383 5.223-6.566 0-12.89-1.101-19.017-3.339-6.135-2.22-11.531-5.55-16.195-9.853-4.647-4.328-8.424-9.569-11.247-15.721-2.865-6.144-4.303-13.097-4.303-20.953 0-7.392 1.015-13.691 3.038-18.905 2.005-5.163 4.681-9.526 8.089-13.149 3.382-3.606 7.099-6.471 11.083-8.562 4.010-2.125 8.158-3.933 12.4-5.395 8.252-2.96 14.852-6.161 19.843-9.56 4.957-3.365 7.452-8.88 7.452-16.504 0-6.54-1.678-11.815-5.068-15.842-3.382-4.070-8.063-6.032-13.983-6.032zM1801.569 435.368c13.312 0 24.301 3.347 32.854 9.956 8.605 6.729 15.145 15.627 19.86 26.865l-26.34 15.257c-2.349-5.524-5.456-10.386-9.388-14.603-3.907-4.277-9.139-6.376-15.704-6.376-4.647 0-8.743 1.213-12.245 3.657-3.502 2.427-6.454 5.748-8.88 9.853-2.435 4.122-4.268 9.001-5.559 14.586-1.239 5.619-1.936 11.617-1.936 17.959h84.149v13.648c0 11.634-1.058 22.408-3.149 32.398-2.151 9.947-5.456 18.561-10.016 25.858-4.552 7.314-10.464 13.071-17.752 17.305-7.314 4.268-16.16 6.359-26.538 6.359-9.311 0-17.735-2.048-25.239-6.204-7.478-4.122-14.009-10.008-19.525-17.589-5.481-7.658-9.732-16.788-12.684-27.476-2.96-10.705-4.475-22.502-4.475-35.401 0-27.743 5.74-49.006 17.158-63.824 11.427-14.835 26.581-22.227 45.409-22.227zM1776.167 551.441c1.093 4.75 2.625 9.173 4.638 13.312 1.988 4.105 4.612 7.572 7.925 10.326 3.253 2.719 7.22 4.105 11.909 4.105 8.029 0 13.966-3.743 17.744-11.273 3.838-7.512 5.74-17.288 5.74-29.378h-49.522c-0.009 3.838 0.516 8.123 1.566 12.908zM1965.727 467.766c6.97-10.412 15.412-18.432 25.359-24.163 9.939-5.705 21.289-8.571 33.999-8.571 12.443 0 23.776 2.865 33.826 8.571 10.059 5.731 18.552 13.751 25.548 24.163 6.987 10.352 12.331 22.795 16.014 37.303 3.709 14.474 5.55 30.634 5.55 48.421 0 17.769-1.841 33.844-5.55 48.231-3.692 14.413-9.035 26.805-16.014 37.165-6.987 10.369-15.489 18.346-25.548 23.956-10.051 5.593-21.384 8.424-33.826 8.424-12.71 0-24.060-2.831-34.153-8.424-10.025-5.61-18.518-13.587-25.514-23.956-7.022-10.36-12.271-22.76-15.894-37.165-3.623-14.396-5.404-30.462-5.404-48.231 0-17.787 1.841-33.947 5.576-48.421 3.692-14.508 9.044-26.951 16.031-37.303zM1986.035 585.698c1.695 10.042 4.277 18.75 7.788 26.030 3.485 7.288 7.848 13.088 13.002 17.322 5.189 4.208 11.298 6.351 18.269 6.351 6.772 0 12.735-2.143 17.924-6.351 5.189-4.234 9.569-10.033 13.054-17.322 3.476-7.288 6.092-15.988 7.925-26.030 1.816-10.051 2.676-20.764 2.676-32.209 0-11.453-0.817-22.218-2.487-32.26-1.73-10.042-4.303-18.785-7.839-26.177-3.468-7.392-7.813-13.243-12.968-17.434-5.215-4.259-11.29-6.376-18.286-6.376-6.97 0-13.080 2.117-18.269 6.376-5.154 4.191-9.517 10.042-13.002 17.434-3.519 7.392-6.092 16.134-7.788 26.177-1.721 10.042-2.53 20.807-2.53 32.26-0.009 11.445 0.809 22.158 2.53 32.209zM2140.332 602.676h35.9v-161.921h-35.9v161.921zM2158.145 672.222c-6.187 0-11.204-2.229-15.119-6.669-3.889-4.432-5.877-9.724-5.877-15.885 0-6.342 1.979-11.643 5.877-15.868 3.915-4.208 8.932-6.342 15.119-6.342 5.92 0 10.885 2.134 14.887 6.342 4.027 4.225 6.015 9.517 6.015 15.868 0 6.161-1.902 11.453-5.826 15.885-3.915 4.44-8.966 6.669-15.076 6.669zM2219.094 680.801h35.849v-240.046h-35.849v240.046zM2409.248 435.686c12.245 0 22.382 2.762 30.333 8.295 7.942 5.585 14.018 12.236 18.277 19.981l16.152-23.216 43.808-0.009-37.819 53.644 33.405 68.608h-37.484l-17.141-41.58-25.703 37.148c5.499 3.39 10.791 7.073 15.85 11.101 5.137 4.019 9.543 8.459 13.381 13.329 3.786 4.87 6.85 10.274 9.164 16.212 2.332 5.92 3.511 12.503 3.511 19.663 0 8.252-1.282 15.687-3.786 22.218-2.513 6.574-5.981 12.116-10.429 16.702-4.483 4.535-9.758 8.029-15.859 10.464-6.118 2.444-12.865 3.64-20.23 3.64-7.615 0-14.783-1.308-21.384-3.976-6.634-2.65-12.357-6.368-17.107-11.264-4.759-4.853-8.485-10.791-11.204-17.761-2.762-6.996-4.122-14.818-4.122-23.518 0-9.070 1.36-17.511 4.122-25.239 2.736-7.71 7.056-15.79 13.054-24.258-10.825-6.368-19.912-14.732-27.192-25.118-7.306-10.343-10.946-23.268-10.946-38.697 0-21.203 5.43-37.535 16.186-49.075 10.791-11.514 25.196-17.296 43.163-17.296zM2410.978 634.764c3.425 5.258 8.029 7.934 13.708 7.934 5.636 0 9.93-2.435 12.847-7.297 2.977-4.87 4.432-11.135 4.432-18.75 0-8.459-2.366-15.592-7.099-21.427-4.698-5.843-10.18-10.842-16.53-15.093-4.199 5.92-7.306 11.643-9.388 17.141-2.168 5.524-3.192 11.539-3.192 18.096-0.009 7.641 1.73 14.104 5.223 19.396zM2391.763 527.442c4.053 5.92 8.39 10.352 13.019 13.312l34.334-50.133c-1.919-5.507-5.103-10.644-9.517-15.403-4.457-4.767-10.085-7.142-16.857-7.142-8.063 0-14.577 3.218-19.533 9.672-4.965 6.428-7.443 15.283-7.443 26.504 0 9.526 1.988 17.245 5.998 23.191zM2679.481 435.987c13.123 0 24.326 1.695 33.775 5.111 9.474 3.356 17.528 7.788 24.309 13.321v113.974h-61.939v-33.026h27.295v-58.093c-2.53-1.928-5.869-3.468-9.99-4.578-4.105-1.187-8.726-1.773-13.794-1.773-8.072 0-14.964 2.125-20.798 6.351-5.808 4.191-10.662 10.12-14.413 17.64-3.872 7.461-6.686 16.272-8.614 26.314-1.902 10.042-2.831 20.807-2.831 32.26 0 10.989 0.929 21.461 2.831 31.417 1.928 9.939 4.741 18.69 8.614 26.177 3.752 7.529 8.605 13.484 14.413 17.967 5.834 4.432 12.641 6.652 20.48 6.652 14.362 0 25.824-6.118 34.248-18.415l21.917 26.667c-6.135 8.682-14.078 15.412-23.802 20.153-9.741 4.767-21.306 7.168-34.592 7.168-12.71 0-24.12-2.934-34.3-8.734-10.188-5.834-18.819-13.983-26.030-24.438-7.142-10.507-12.675-22.924-16.513-37.337-3.803-14.379-5.714-30.126-5.714-47.285 0-17.58 1.971-33.568 5.903-47.956 3.872-14.388 9.509-26.753 16.806-37.148 7.288-10.386 16.255-18.38 26.813-23.948 10.567-5.619 22.545-8.442 35.926-8.442zM2832.797 542.036c-7.658 0-15.446-0.8-23.32-2.392-7.942-1.566-15.162-4.475-21.624-8.708-6.462-4.251-11.694-9.99-15.876-17.296-4.105-7.323-6.204-16.685-6.204-28.104 0-8.906 1.274-16.436 3.803-22.709 2.564-6.247 5.774-11.35 9.724-15.24 3.907-3.907 8.304-6.712 13.192-8.416 4.836-1.704 9.569-2.538 14.267-2.538 10.163 0 18.294 2.487 24.481 7.452 6.101 4.974 10.343 11.909 12.684 20.798h0.602v-24.146h29.868v96.23c0 11.221-0.904 21.263-2.728 30.161-1.764 8.872-4.81 16.341-9.027 22.365-4.251 6.041-9.801 10.662-16.685 13.82-6.858 3.192-15.24 4.776-25.221 4.776-8.941 0-17.881-2.048-26.985-6.204-9.096-4.122-16.608-9.896-22.528-17.313l17.115-22.511c3.562 4.655 7.874 8.407 12.899 11.264 4.965 2.857 10.498 4.285 16.651 4.285 7.177 0 12.976-2.375 17.253-7.142 4.38-4.733 6.591-12.538 6.591-23.32v-5.111h-8.932zM2842.641 516.642v-9.216c0-4.853-0.499-9.896-1.446-15.059-0.904-5.197-2.427-9.879-4.414-14.138-2.039-4.234-4.75-7.736-8.089-10.464-3.408-2.745-7.555-4.165-12.451-4.165-4.819 0-9.113 2.022-12.787 6.049-3.717 4.036-5.593 10.257-5.593 18.75 0 5.731 0.972 10.403 2.9 14.112 1.885 3.692 4.432 6.634 7.598 8.734 3.158 2.134 6.867 3.562 10.946 4.277 4.122 0.766 8.407 1.127 12.856 1.127h10.481zM2948.716 464.272c-6.807 0-12.753 1.592-17.787 4.75-5.094 3.175-9.543 6.987-13.372 11.419l-19.361-22.846c6.127-6.772 13.63-12.185 22.399-16.186 8.76-4.027 18.286-6.032 28.422-6.032 6.789 0 13.252 1.058 19.542 3.158 6.213 2.117 11.78 5.387 16.677 9.844 4.819 4.457 8.734 10.042 11.574 16.694 2.865 6.652 4.268 14.405 4.268 23.328 0 7.392-1.101 13.802-3.313 19.172-2.22 5.438-5.197 10.042-8.88 13.846-3.743 3.803-7.839 6.918-12.408 9.354-4.543 2.418-9.139 4.5-13.794 6.204-8.295 2.96-14.276 5.869-18.139 8.743-3.769 2.857-5.645 7.452-5.645 13.802 0 6.135 1.73 11.075 5.352 14.775 3.649 3.7 8.072 5.559 13.355 5.559 5.679 0 10.782-1.291 15.231-3.838 4.449-2.521 8.14-5.826 11.109-9.853l19.069 23.216c-5.499 5.481-12.176 9.982-20.033 13.484-7.796 3.502-16.616 5.223-26.349 5.223-6.523 0-12.899-1.101-19.026-3.339-6.101-2.22-11.505-5.55-16.195-9.853-4.638-4.328-8.399-9.569-11.264-15.721-2.891-6.144-4.285-13.097-4.285-20.953 0-7.392 1.033-13.691 3.029-18.905 1.979-5.163 4.698-9.526 8.054-13.149 3.39-3.606 7.099-6.471 11.144-8.562 4.036-2.125 8.166-3.933 12.357-5.395 8.312-2.96 14.921-6.161 19.869-9.56 4.957-3.365 7.426-8.88 7.426-16.504 0-6.54-1.678-11.815-5.034-15.842-3.425-4.070-8.106-6.032-13.992-6.032zM3095.982 665.544h38.155v-224.798h-38.155v224.798zM3257.774 565.872c1.377-3.408 2.315-7.142 2.693-11.29 0.413-4.122 0.62-8.209 0.62-12.219v-101.626h35.926v101.626c0 8.252-0.559 16.358-1.626 24.283-1.093 7.934-3.055 14.973-6.006 21.108-2.977 6.144-7.168 11.057-12.555 14.766-5.378 3.692-12.555 5.559-21.435 5.559-10.154 0-18.673-3.029-25.557-9.044-6.884-6.032-11.815-13.407-14.775-22.072h-0.628v25.703h-35.298v-161.921h35.926v93.666c0 12.297 2.392 22.433 7.125 30.522 4.776 8.011 11.178 12.030 19.224 12.030 4.191 0 7.676-1.007 10.309-3.020 2.685-1.996 4.681-4.716 6.058-8.072zM3356.681 627.45c5.92 0 10.877 2.134 14.904 6.342 4.044 4.225 6.058 9.517 6.058 15.868 0 6.161-1.979 11.453-5.912 15.885-3.924 4.449-8.949 6.669-15.059 6.669-6.178 0-11.212-2.229-15.11-6.669-3.907-4.432-5.86-9.724-5.86-15.885 0-6.342 1.953-11.643 5.86-15.868 3.907-4.199 8.941-6.342 15.119-6.342zM3338.851 602.676h35.917v-161.921h-35.917v161.921zM3453.806 643.954h-33.68v-41.287h-20.308v-27.596h20.308v-91.127c0-15.248 3.029-26.951 9.104-35.1 5.963-8.106 15.919-12.211 29.696-12.211 4.225 0 8.433 0.43 12.649 1.256 4.242 0.835 7.633 1.919 10.197 3.201l-0.628 27.915c-1.497-0.843-3.27-1.471-5.249-1.893-1.996-0.465-3.993-0.654-5.86-0.654-5.524 0-9.569 2.014-12.236 6.041-2.685 4.010-3.984 10.455-3.984 19.361v83.202h28.276v27.596h-28.276v41.296zM3525.563 627.45c5.92 0 10.868 2.134 14.904 6.342 4.053 4.225 6.032 9.517 6.032 15.868 0 6.161-1.971 11.453-5.886 15.885-3.898 4.449-8.906 6.669-15.059 6.669-6.135 0-11.187-2.229-15.033-6.669-3.933-4.432-5.894-9.724-5.894-15.885 0-6.342 1.962-11.643 5.894-15.868 3.855-4.199 8.906-6.342 15.042-6.342zM3507.811 602.676h35.831v-161.921h-35.831v161.921zM3683.956 440.746v96.222c0 11.221-0.852 21.263-2.685 30.161-1.79 8.872-4.784 16.341-9.027 22.365-4.268 6.041-9.793 10.662-16.668 13.82-6.867 3.192-15.291 4.776-25.256 4.776-8.88 0-17.881-2.048-26.968-6.204-9.139-4.122-16.642-9.896-22.554-17.313l17.158-22.511c3.588 4.655 7.831 8.407 12.856 11.264 4.931 2.857 10.55 4.285 16.668 4.285 7.211 0 12.951-2.375 17.296-7.142 4.328-4.733 6.462-12.538 6.462-23.32v-5.111h-8.872c-7.572 0-15.36-0.8-23.32-2.392-7.942-1.566-15.128-4.475-21.581-8.708-6.462-4.251-11.754-9.99-15.859-17.296-4.156-7.323-6.221-16.685-6.221-28.104 0-8.906 1.291-16.436 3.821-22.709 2.547-6.247 5.783-11.35 9.706-15.24 3.864-3.907 8.269-6.712 13.131-8.416s9.629-2.538 14.276-2.538c10.188 0 18.363 2.487 24.49 7.452 6.11 4.974 10.343 11.909 12.684 20.798h0.654v-24.146h29.808zM3652.212 507.418c0-4.853-0.473-9.896-1.403-15.059-0.938-5.197-2.418-9.879-4.44-14.138-1.996-4.234-4.664-7.736-8.097-10.464-3.408-2.745-7.512-4.165-12.4-4.165-4.87 0-9.121 2.022-12.83 6.049-3.717 4.036-5.559 10.257-5.559 18.75 0 5.731 0.955 10.403 2.917 14.112 1.867 3.692 4.432 6.634 7.598 8.734 3.132 2.134 6.832 3.562 10.937 4.277 4.105 0.766 8.424 1.127 12.822 1.127h10.464v-9.225zM3727.162 483.952c0-15.248 3.029-26.951 9.078-35.1 6.032-8.106 15.937-12.211 29.662-12.211 4.216 0 8.502 0.43 12.727 1.256 4.208 0.835 7.581 1.919 10.18 3.201l-0.671 27.915c-1.471-0.843-3.244-1.471-5.249-1.893-1.979-0.465-3.924-0.654-5.86-0.654-5.516 0-9.569 2.014-12.228 6.041-2.685 4.010-3.984 10.455-3.984 19.361v83.202h28.268v27.596h-28.268v41.287h-33.646v-41.287h-20.282v-27.596h20.282v-91.119zM3814.787 602.676h35.909v-161.921h-35.909v161.921zM3832.591 627.45c5.92 0 10.894 2.134 14.93 6.342 3.993 4.225 5.989 9.517 5.989 15.868 0 6.161-1.945 11.453-5.851 15.885-3.915 4.449-8.949 6.669-15.076 6.669-6.153 0-11.195-2.229-15.093-6.669-3.907-4.432-5.869-9.724-5.869-15.885 0-6.342 1.962-11.643 5.869-15.868 3.907-4.199 8.949-6.342 15.102-6.342zM3960.841 440.746l42.87 161.93h-36.494l-26.383-124.154h-0.628l-27.269 124.154h-37.828l42.862-161.93zM4135.17 558.566c-2.134 9.947-5.456 18.561-10.025 25.858-4.5 7.314-10.49 13.071-17.787 17.305-7.28 4.268-16.152 6.359-26.478 6.359-9.336 0-17.744-2.048-25.282-6.204-7.461-4.122-13.975-10.008-19.516-17.589-5.499-7.658-9.741-16.788-12.684-27.476-2.952-10.705-4.5-22.502-4.5-35.401 0-27.743 5.774-49.006 17.184-63.824 11.436-14.835 26.555-22.218 45.409-22.218 13.364 0 24.283 3.347 32.888 9.956 8.545 6.729 15.153 15.627 19.774 26.865l-26.28 15.257c-2.366-5.524-5.49-10.386-9.414-14.603-3.898-4.277-9.113-6.376-15.704-6.376-4.673 0-8.786 1.213-12.236 3.657-3.451 2.427-6.411 5.748-8.889 9.853-2.444 4.122-4.303 9.001-5.559 14.586-1.265 5.619-1.876 11.617-1.876 17.959h84.131v13.648c0.009 11.625-1.050 22.399-3.158 32.389zM4054.481 538.534c0 3.838 0.534 8.123 1.601 12.908 1.076 4.75 2.59 9.173 4.586 13.312 2.022 4.105 4.69 7.572 7.942 10.326 3.322 2.719 7.28 4.105 11.97 4.105 7.985 0 13.94-3.743 17.718-11.273 3.829-7.512 5.714-17.288 5.714-29.378h-49.531zM820.517 191.991c4.759 0 8.665 1.575 11.668 4.655 2.995 3.055 4.492 6.987 4.492 11.806 0 4.767-1.497 8.665-4.492 11.703-3.012 3.038-6.918 4.535-11.668 4.535-4.905 0-8.794-1.506-11.815-4.535-3.038-3.046-4.5-6.944-4.5-11.703 0-4.827 1.463-8.751 4.5-11.806 3.012-3.081 6.91-4.655 11.815-4.655zM808.624 103.196v-55.511h-42.087c1.050-11.040 5.499-19.852 13.286-26.374 7.822-6.574 17.451-9.836 28.792-9.836 11.032 0 20.119 3.356 27.218 9.973 7.030 6.643 10.593 15.403 10.593 26.237v95.344c-17.356-8.596-26.461-13.312-27.416-14.173-6.953-5.43-10.386-13.983-10.386-25.66zM1036.116 223.116c4.75 0 8.665 1.497 11.668 4.543 3.012 2.995 4.518 6.918 4.518 11.711 0 4.862-1.506 8.829-4.518 11.849-3.003 3.046-6.918 4.569-11.668 4.569-4.862 0-8.812-1.523-11.832-4.569-2.995-3.020-4.509-6.987-4.509-11.849 0-4.802 1.514-8.726 4.509-11.711 3.020-3.046 6.97-4.543 11.832-4.543zM1124.386 247.348v-142.732h-49.040l-0.043-0.077v0.077h-40.194c-7.443 0-13.725 4.561-18.69 13.742-2.435 4.337-3.649 8.011-3.649 10.98 0 3.322 1.532 4.939 4.647 4.939h57.895v55.83c-2.693-4.070-5.352-8.097-7.985-12.125-2.685-3.167-6.557-4.793-11.668-4.793-1.996 0-4.965-0.275-8.906-0.8-3.933-0.542-6.927-0.817-8.941-0.817-2.952 0-7.418 0.181-13.303 0.499-5.903 0.318-10.369 0.473-13.312 0.473-10.008 0-18.346-3.132-25.032-9.397-7.022-6.48-10.533-14.663-10.533-24.559 0-7.039 3.933-18.355 11.789-33.981h-59.16l-0.31-0.516v179.759c-7.185-5.008-14.413-9.999-21.736-14.964-7.202-6.273-10.799-13.742-10.799-22.356v-180.19h245.261c4.475 0 8.304 1.609 11.471 4.784 3.21 3.21 4.802 7.022 4.802 11.488v201.246c-7.512-4.784-14.964-9.543-22.39-14.362-6.798-5.74-10.171-13.14-10.171-22.149zM1205.721 246.539v-180.19h32.51v217.51c-7.168-5.008-14.405-9.999-21.728-14.964-7.228-6.282-10.782-13.742-10.782-22.356zM1346.689 171.296c-10.937-1.213-19.069-3.519-24.387-7.039-20.437-13.295-30.625-34.618-30.625-63.944v-33.964h61.233v-26.787h-61.233c1.076-14.052 5.679-23.621 13.734-28.706 11.35-7.237 22.571-10.834 33.818-10.834 12.675 0 23.337 3.39 31.976 10.171 9.509 7.349 14.25 17.141 14.25 29.369v145.597l-17.055-9.405c-3.089-1.73-10.343-3.21-21.711-4.457zM1352.902 104.616h-28.379c-0.241 1.678-0.31 3.192-0.31 4.483 0 7.564 2.874 14.035 8.648 19.499 5.731 5.499 12.426 8.226 20.041 8.226v-32.209zM1824.845 260.72c-4.827 0-8.786-1.514-11.78-4.518-3.055-3.063-4.569-7.005-4.569-11.901 0-4.767 1.514-8.682 4.569-11.72 2.995-3.046 6.961-4.526 11.78-4.526 4.784 0 8.682 1.48 11.651 4.526 3.020 3.046 4.561 6.961 4.561 11.72 0 4.888-1.54 8.829-4.561 11.901-2.96 3.012-6.867 4.518-11.651 4.518zM1798.841 180.555c0.645 0.017 1.205 0.129 1.876 0.129-3.468 0-3.976-0.043-1.876-0.129zM1953.809 193.764c4.793 0 8.657 1.497 11.703 4.518 3.029 3.029 4.543 6.961 4.543 11.754 0 4.767-1.523 8.682-4.543 11.78-3.046 3.081-6.91 4.638-11.703 4.638-4.888 0-8.82-1.558-11.815-4.638-2.977-3.098-4.475-7.013-4.475-11.78 0-4.802 1.489-8.734 4.475-11.754 2.995-3.020 6.927-4.518 11.815-4.518zM2104.372 247.348v-142.732l-49.126-0.009v179.252c-7.547-4.784-14.973-9.543-22.408-14.362-6.764-5.74-10.154-13.131-10.154-22.149v-142.732h-49.255v42.75l-22.425-14.396c-5.146-3.365-8.252-6.703-9.319-9.999-0.645-2.031-0.904-6.703-0.749-14.052v-4.303h-81.851v88.494c-5.524-5.499-11.849-9.207-18.966-11.135-5.309-1.523-11.952-2.151-19.929-1.919-11.651 0.215-18.647 0.387-21.323 0.499-11.273-0.327-19.878-3.399-25.626-9.336-6.127-6.351-9.207-13.871-9.207-22.58 0-8.51 2.84-15.954 8.528-22.158 5.972-6.626 13.071-9.879 21.22-9.879h32.785v-11.987h-114.447v31.589c0 6.428-0.611 10.946-1.79 13.398-0.938 1.807-3.976 4.982-9.035 9.577-6.454 5.826-13.699 8.751-21.754 8.751h-110.799c-11.694 0-21.994-5.318-30.797-15.945v131.872c-7.331-4.259-14.723-8.485-22.175-12.77-6.703-5.292-10.051-12.365-10.051-21.194v-145.279h-28.861l-12.908-38.267h656.754c4.406 0 8.295 1.609 11.479 4.784 3.149 3.21 4.767 7.022 4.767 11.488v201.238c-7.495-4.784-15.016-9.543-22.416-14.362-6.824-5.74-10.163-13.14-10.163-22.149zM1537.91 104.616v28.706h121.839c4.681 0 8.966-1.274 12.908-3.812 4.457-2.883 6.686-6.505 6.686-10.877l0.172-14.018h-141.605zM1826.532 140.189h-20.678c-6.832 0-10.257 2.685-10.257 8.123 0 6.264 3.666 9.397 10.928 9.397h20.015v-17.52zM2272.282 224.699c4.776 0 8.7 1.506 11.72 4.552 3.012 3.046 4.492 6.97 4.492 11.849 0 4.767-1.489 8.734-4.492 11.737-3.029 3.046-6.953 4.552-11.72 4.552-4.913 0-8.846-1.514-11.798-4.552-3.012-3.012-4.483-6.979-4.483-11.737 0-4.879 1.471-8.803 4.483-11.849 2.952-3.046 6.884-4.552 11.798-4.552zM2327.793 224.699c4.888 0 8.786 1.506 11.798 4.552 2.969 3.046 4.449 6.97 4.449 11.849 0 4.767-1.48 8.734-4.449 11.737-3.012 3.046-6.91 4.552-11.798 4.552-4.836 0-8.751-1.514-11.763-4.552-2.986-3.012-4.518-6.979-4.518-11.737 0-4.879 1.54-8.803 4.518-11.849 3.012-3.046 6.918-4.552 11.763-4.552zM2402.863 18.987c-4.879 0-8.837-1.532-11.789-4.526-2.969-3.046-4.475-6.961-4.475-11.746 0-4.896 1.506-8.863 4.475-11.892 2.952-3.003 6.91-4.5 11.789-4.5 4.836 0 8.708 1.506 11.729 4.5 2.986 3.029 4.561 6.987 4.561 11.892 0 4.793-1.583 8.708-4.561 11.746-3.020 2.995-6.884 4.526-11.729 4.526zM2458.409 18.987c-4.81 0-8.717-1.532-11.746-4.526-3.063-3.046-4.526-6.961-4.526-11.746 0-4.896 1.463-8.863 4.526-11.892 3.038-3.003 6.944-4.5 11.746-4.5 4.853 0 8.777 1.506 11.729 4.5 3.012 3.029 4.483 6.987 4.483 11.892 0 4.793-1.48 8.708-4.483 11.746-2.952 2.995-6.867 4.526-11.729 4.526zM2574.482 193.764c4.784 0 8.726 1.497 11.737 4.518 2.995 3.029 4.5 6.961 4.5 11.754 0 4.767-1.514 8.682-4.5 11.78-3.020 3.081-6.961 4.638-11.737 4.638-4.896 0-8.812-1.558-11.815-4.638-2.977-3.098-4.5-7.013-4.5-11.78 0-4.802 1.532-8.734 4.5-11.754 2.995-3.020 6.91-4.518 11.815-4.518zM2561.738 121.034c-0.68-2.229-0.706-7.693-0.163-16.418h-81.937v59.642c-17.408-11.582-27.089-19.301-29.094-23.087-2.332-4.070-3.485-16.246-3.485-36.554h-98.106v83.237c-8.579-8.149-18.225-13.501-28.818-15.919-8.639-0.998-17.253-1.928-25.875-2.9-9.509-1.041-17.21-4.036-22.95-8.932-17.201-14.758-25.824-33.25-25.824-55.485v-38.267h336.173c3.192 0 6.032 1.041 8.588 3.012 2.556 2.014 3.838 4.63 3.838 7.822v70.183l-22.554-14.396c-5.447-3.606-8.777-7.564-9.793-11.935zM2316.426 104.616h-38.232c-0.112 1.256-0.181 2.521-0.181 3.649 0 7.478 2.917 14.095 8.734 19.86 5.817 5.834 12.477 8.708 19.964 8.708 3.055 0 6.333-0.559 9.724-1.592v-30.625zM2774.756 221.825c-2.96-3.098-4.483-7.013-4.483-11.78 0-4.802 1.523-8.734 4.483-11.754 2.969-3.029 6.944-4.518 11.832-4.518 4.819 0 8.674 1.497 11.677 4.518 3.029 3.029 4.586 6.961 4.586 11.754 0 4.767-1.566 8.682-4.586 11.78-3.012 3.081-6.867 4.638-11.677 4.638-4.888 0-8.863-1.558-11.832-4.638zM2868.31 33.641c-4.75 0-8.674-1.497-11.686-4.543-3.003-3.020-4.5-6.901-4.5-11.703 0-4.905 1.506-8.88 4.5-11.901 3.020-3.003 6.944-4.518 11.686-4.518 4.836 0 8.812 1.523 11.832 4.518 2.986 3.020 4.492 6.987 4.492 11.901 0 4.81-1.514 8.691-4.492 11.703-3.012 3.046-6.987 4.543-11.832 4.543zM3035.041 247.348v-142.732h-49.272v179.243c-7.521-4.784-14.956-9.543-22.382-14.362-6.789-5.74-10.188-13.131-10.188-22.149v-142.732h-49.092v59.642c-17.408-12.847-27.080-20.764-28.861-23.741-2.427-4.259-3.692-16.238-3.692-35.9h-65.338v42.75l-22.451-14.396c-5.129-3.365-8.278-6.703-9.311-9.999-0.654-2.031-0.929-6.703-0.809-14.052v-4.303h-98.528v143.661c0 8.424-3.623 15.567-10.799 21.547-7.159 4.673-14.474 9.362-21.719 14.035v-217.51h408.722c4.466 0 8.278 1.609 11.436 4.784 3.201 3.21 4.827 7.022 4.827 11.488v201.238c-7.495-4.784-15.016-9.543-22.365-14.362-6.798-5.74-10.18-13.14-10.18-22.149zM3116.359 246.539v-180.19h32.501v217.51c-7.151-5.008-14.396-9.999-21.702-14.964-7.211-6.282-10.799-13.742-10.799-22.356zM3335.237 231.248c4.853 0 8.855 1.506 11.832 4.543 3.020 3.020 4.5 6.987 4.5 11.875 0 4.784-1.489 8.7-4.5 11.737-2.977 3.046-6.979 4.518-11.832 4.518-4.776 0-8.665-1.48-11.651-4.518-3.029-3.046-4.535-6.961-4.535-11.737 0-4.888 1.514-8.855 4.535-11.875 2.986-3.046 6.875-4.543 11.651-4.543zM3298.364 169.033c-9.586-1.041-17.21-4.036-22.829-8.932-17.227-14.87-25.867-33.379-25.867-55.485v-38.267h88.864c4.888 0 8.691 3.012 11.505 9.096 2.065 4.784 3.132 9.922 3.132 15.472v96.936c-8.639-8.149-18.2-13.501-28.861-15.919-8.691-0.998-17.365-1.928-25.944-2.9zM3320.651 104.616h-38.129c-0.215 1.256-0.31 2.521-0.31 3.649 0 7.478 2.943 14.095 8.794 19.86 5.808 5.834 12.477 8.708 19.912 8.708 2.969 0 6.221-0.559 9.724-1.592v-30.625zM3267.928 259.403c-3.046-3.046-4.552-6.961-4.552-11.737 0-4.888 1.514-8.855 4.552-11.875 2.986-3.046 6.918-4.543 11.651-4.543 4.862 0 8.812 1.506 11.823 4.543 3.012 3.020 4.518 6.987 4.518 11.875 0 4.784-1.514 8.7-4.518 11.737s-6.961 4.518-11.823 4.518c-4.741 0-8.674-1.471-11.651-4.518zM3413.259 103.196v-55.511h-42.079c1.076-11.040 5.516-19.852 13.381-26.374 7.77-6.574 17.365-9.836 28.698-9.836 11.040 0 20.153 3.356 27.235 9.973 7.065 6.643 10.584 15.403 10.584 26.237v95.344c-17.331-8.596-26.452-13.312-27.45-14.173-6.867-5.43-10.369-13.983-10.369-25.66zM3581.866 169.515h-53.085c-4.44 0-9.336 1.816-14.482 5.447-4.862 3.261-8.476 7.048-10.877 11.298v-49.436h64.366c3.081 0 6.23-1.239 9.371-3.752 3.132-2.487 4.698-5.215 4.698-8.183v-20.273h-96.85v-38.267h113.759c4.535 0 8.287 1.575 11.238 4.69 2.891 3.167 4.397 6.996 4.397 11.582v55.649c0 8.76-3.038 16.1-9.139 22.149-6.067 6.084-13.863 9.096-23.397 9.096zM3774.421 33.641c-4.75 0-8.674-1.497-11.625-4.543-3.046-3.020-4.535-6.901-4.535-11.703 0-4.905 1.489-8.88 4.535-11.901 2.952-3.003 6.875-4.518 11.625-4.518 4.896 0 8.812 1.523 11.832 4.518 3.029 3.020 4.543 6.987 4.543 11.901 0 4.81-1.523 8.691-4.543 11.703-3.020 3.046-6.936 4.543-11.832 4.543zM4022.797 247.348v-142.732h-69.821c-7.134 11.066-17.158 20.308-29.997 27.734-3.081 1.73-5.86 4.647-8.485 8.82-0.379 0.697-2.315 4.432-5.688 11.126-5.843-11.359-10.636-18.019-14.379-19.946-10.73-5.834-20.824-15.085-30.29-27.734h-53.928v59.642c-17.425-12.847-27.046-20.764-28.861-23.741-2.392-4.259-3.631-16.238-3.631-35.9h-82.127v143.661c0 8.424-3.588 15.567-10.808 21.547-7.151 4.673-14.465 9.362-21.736 14.035v-217.51h201.091c8.063-19.998 22.769-29.98 43.989-29.98 10.016 0 19.146 2.685 27.39 8.037 8.209 5.361 14.129 12.692 17.744 21.951h85.818c4.483 0 8.304 1.609 11.479 4.784 3.201 3.21 4.767 7.022 4.767 11.488v201.229c-7.469-4.784-14.938-9.543-22.33-14.362-6.772-5.74-10.197-13.14-10.197-22.149zM3920.035 73.577c-3.038-3.055-7.013-4.526-11.909-4.526-4.776 0-8.674 1.471-11.686 4.526-3.046 2.995-4.569 6.936-4.569 11.806 0 4.759 1.523 8.657 4.569 11.668 3.020 3.020 6.918 4.509 11.686 4.509 4.888 0 8.872-1.497 11.909-4.509 2.995-3.020 4.535-6.918 4.535-11.668 0-4.87-1.549-8.812-4.535-11.806zM4104.166 246.539v-180.19h32.467v217.51c-7.159-5.008-14.379-9.999-21.702-14.964-7.211-6.282-10.765-13.742-10.765-22.356zM382.735 243.45c-9.018 50.314-36.417 97.134-68.599 136.132-28.87 34.988-64.555 66.035-105.317 86.679l-0.103 0.077c-5.12 2.599-10.283 5.043-15.541 7.271l-0.439-36.287c-32.286-57.215-67.756-114.172-82.832-178.391-4.156-17.632-5.395-35.298-5.783-53.179-1.738 4.251-1.704-83.090-0.112-83.805 0.095-4.483 0.172-8.966 0.361-13.475 0.422-8.889 1.549-17.744 3.322-26.443 8.097-39.446 33.147-72.265 63.187-97.96 26.271-22.476 58.979-39.222 94.156-38.731 28.939 0.361 55.503 14.173 75.458 34.523 22.261 22.7 35.599 53.059 41.95 83.839 3.408 16.539 4.234 33.439 4.449 50.348 1.575 1.179 1.721 70.716 0.232 78.383-0.301 17.124-1.368 34.188-4.389 51.019zM285.429 45.628c-31.632-7.478-64.004 2.332-91.024 18.974-34.214 21.057-64.039 53.446-79.321 90.809-1.437 3.597-2.719 7.263-3.933 10.946 7.288 28.99 19.379 56.828 32.622 83.486 20.101 40.418 43.782 78.848 64.916 118.681 44.462-22.519 82.626-57.31 113.139-96.325 27.089-34.592 48.851-74.718 58.841-117.674-12.125-49.591-43.344-96.592-95.241-108.897zM478.156 429.818c-4.303 6.703-6.015 0.878-9.612-6.875l-22.046-43.206 21.59-67.111 11.651 25.066c51.467-36.253 62.085-130.625 62.085-130.625-4.982-11.135-11.324-21.702-17.924-31.847-13.123-20.162-27.794-39.213-42.948-57.878-4.397-5.413-8.846-10.808-13.303-16.212-4.647-5.559-9.319-11.187-13.992-16.728l0.559 15.549c1.308 43.748 0.947 88.322-3.175 131.915-1.162 12.090-2.762 24.129-4.948 36.047-5.197 28.19-12.847 55.976-22.605 82.927-5.456 15.197-11.462 30.316-17.959 45.073-24.8 56.294-57.301 112.081-96.153 161.164 12.417 26.452 24.197 53.498 31.839 81.696 3.683 13.536 0.534 36.614 0.534 52.396l-0.534 52.396c-9.526-36.468-26.607-70.776-42.724-104.698-5.808-12.262-11.866-24.473-16.952-37.079-1.17-2.857-2.384-5.929-2.65-9.053l-1.953-96.428c0.198-3.95 0-6.11 1.996-8.399 0.439-0.473 0.904-0.981 1.342-1.489 3.098-3.408 6.11-6.927 9.096-10.429 12.383-14.62 23.999-29.816 35.203-45.314 37.561-51.888 69.305-108.269 92.754-167.936 0 0 27.562-76 22.27-158.823-1.248-18.862-6.97-36.365-14.121-53.85v-104.758c36.012 45.133 76.929 88.339 106.573 138.154 9.784 16.47 27.441 41.278 30.298 60.235l1.093 108.381c-2.289 46.441-36.201 95.852-59.074 135.151-8.433 14.439-17.21 28.595-26.211 42.586zM593.266 401.447c-42.87 94.475-100.963 181.3-152.215 271.205-38.912 68.307-76.12 140.133-96.325 216.554 0 0-10.438 37.888-12.133 61.474v-104.758c21.745-169.623 133.395-314.643 214.773-459.879 38.835-69.262 75.113-142.353 89.355-221.132l5.619-12.735c0.172 47.052 0.404 93.141-10.077 139.273-8.639 37.991-22.941 74.597-38.998 109.998zM190.197 623.921c-53.738-79.476-105.919-160.94-142.267-250.071-17.219-42.251-29.877-86.412-35.341-131.76-2.143-17.89-2.616-35.909-2.728-53.936-0.447-4.578-0.577-20.101-0.559-36.003l7.478 13.011c2.194 11.927 4.948 23.698 7.994 35.401 9.947 38.051 24.817 74.752 41.494 110.351 34.343 73.203 78.745 141.372 123.921 208.19v104.818z" />
<glyph unicode="&#xe90c;" glyph-name="linked-in" horiz-adv-x="1308" d="M884.679 621.454c-103.538 0-149.902-56.775-175.9-96.882v-1.877h-1.195c0.455 0.569 0.91 1.195 1.195 1.877v83.115h-195.015c2.446-55.012 0-586.866 0-586.866h195.015v327.794c0 17.692 1.308 34.987 6.428 47.559 14.108 34.987 46.308 71.452 100.124 71.452 70.656 0 98.873-53.874 98.873-132.779v-314.027h195.129v336.555c0 180.281-96.313 264.078-224.654 264.078zM309.419 890.766c-66.617 0-110.308-43.861-110.308-101.433 0-56.32 42.325-101.433 107.804-101.433h1.308c67.982 0 110.308 45.113 110.308 101.433-1.195 57.572-42.325 101.433-109.113 101.433zM210.66 607.687h195.129v-586.866h-195.129v586.866z" />
<glyph unicode="&#xe90d;" glyph-name="mail-01" horiz-adv-x="1308" d="M654.45 284.331l-152.348 133.461-435.2-372.964c15.758-15.076 36.864-24.064 60.53-24.064h1053.696c23.552 0 44.658 8.988 60.416 24.064l-435.086 372.964-152.007-133.461zM1241.543 875.804c-15.417 15.019-36.864 24.007-60.416 24.007h-1053.696c-23.211 0-44.772-8.988-60.53-24.007l587.605-503.467 587.036 503.467zM38.969 822.556v-730.055l424.903 360.846zM844.572 453.348l424.846-360.846v730.51z" />
<glyph unicode="&#xe90e;" glyph-name="twitter" horiz-adv-x="1308" d="M1194.78 790.983c-39.765-17.692-82.546-29.582-127.431-34.873 45.909 27.42 81.124 70.884 97.564 122.766-42.78-25.543-90.226-43.975-140.8-53.874-40.448 43.122-98.133 69.973-161.906 69.973-122.539 0-221.753-99.328-221.753-221.753 0-17.351 1.877-34.361 5.689-50.574-184.377 9.216-347.819 97.564-457.273 231.822-19.001-32.825-29.98-70.94-29.98-111.559 0-76.914 39.14-144.782 98.645-184.548-36.352 1.138-70.542 11.093-100.466 27.648v-2.788c0-107.463 76.459-197.12 177.892-217.429-18.546-5.006-38.229-7.794-58.425-7.794-14.222 0-28.217 1.422-41.756 3.982 28.217-88.121 110.251-152.235 207.246-154.112-75.89-59.449-171.463-94.891-275.456-94.891-17.863 0-35.556 1.024-52.907 3.129 98.133-62.862 214.642-99.669 340.025-99.669 408.007 0 631.125 337.863 631.125 631.125 0 9.557-0.228 19.115-0.683 28.672 43.292 31.232 80.896 70.315 110.649 114.745z" />
<glyph unicode="&#xe90f;" glyph-name="by-laws" d="M590.632 642.156l-19.29-129.125 19.29-26.451h0.397l19.297 26.451-19.297 129.125zM672.833 473.845h8.509c6.144 28.030 1.861 50.14-8.509 68.226v-68.226zM512 952.789c-278.788 0-504.789-226.001-504.789-504.789s226.001-504.789 504.789-504.789 504.789 226.001 504.789 504.789-226.001 504.789-504.789 504.789zM590.834 830.067c44.256 0 80.11-35.862 80.11-80.11 0-44.227-35.862-80.081-80.11-80.081-44.227 0-80.11 35.862-80.11 80.081-0.007 44.256 35.883 80.11 80.11 80.11zM703.228 120.183h-438.481v297.097h438.481v-297.097zM766.183 439.058h-559.493v34.787h34.65c-5.293 0-9.577 4.283-9.577 9.577s4.283 9.577 9.577 9.577h0.757c0 9.411 7.637 17.040 17.040 17.040h70.281c9.382 0 17.011-7.637 17.011-17.040h0.757c5.293 0 9.577-4.283 9.577-9.577s-4.283-9.577-9.577-9.577h161.633v94.792c-40.448-30.143-105.746 4.983-109.215 7.406-12.959 9.173-16.651 26.393-9.324 40.030l-0.873-0.591-49.354 46.729-10.42-12.475c-3.916-4.731-9.158-7.687-14.733-8.899l-31.975 26.674c0.195 5.69 2.171 11.379 6.144 16.081l28.787 34.564c4.168 4.976 9.771 8.026 15.721 9.072l31.016-25.888c0.029-6.029-1.969-12.086-6.115-17.069l-9.944-11.884 49.664-46.758c10.536 8.452 25.715 9.44 37.297 1.24 3.49-2.452 32.927-30.172 99.068 21.518 2.171 1.687 4.565 2.957 6.988 4.002 9.072 6.057 19.297 10.536 29.718 13.045 0.058 0 0.115 0 0.195 0.029l19.355-20.307 19.946 20.083c10.226-2.51 20.256-6.901 29.184-12.843 1.377-0.62 2.82-1.183 4.139-2.026 31.888-19.55 116.448-71.579 100.59-176.51h21.49v-34.802z" />
<glyph unicode="&#xe910;" glyph-name="registration-documents-01" d="M503.31 513.925l3.743-3.743 38.025 12.129-45.186 45.193-12.129-38.047 15.547-15.533c2.041 0.808 1.716 0.678 0 0zM374.286 263.226c-10.146 1.421-23.119-0.036-37.326-5.697-30.612-12.216-51.142-43.852-37.773-77.355 3.692-9.245 8.841-17.12 15.122-23.473 37.318 25.521 57.294 68.86 59.976 106.525zM443.536 633.214c-2.654 6.649-7.377 10.096-13.737 7.579-27.15-10.839-34.21-91.331-36.042-146.309 37.39 36.338 63.719 103.77 49.779 138.73zM530.028 590.084l136.466 136.452c2.582 2.589 2.582 6.815 0 9.403-2.589 2.61-6.815 2.61-9.411 0l-136.452-136.459c-2.618-2.582-2.618-6.807 0-9.396 2.596-2.589 6.822-2.589 9.396 0zM512 952.789c-278.788 0-504.789-226.001-504.789-504.789s226.001-504.789 504.789-504.789 504.789 226.001 504.789 504.789-226.001 504.789-504.789 504.789zM300.717 486.818c9.454-15.31 31.91-25.434 62.817-13.096 5.776 2.3 11.79 5.704 17.271 9.569 1.154 58.39 7.702 151.062 44.955 165.931 9.245 3.699 19.744-0.822 24.937-13.824 15.331-38.414-11.826-118.899-57.243-156.095-0.13-13.125-0.195-23.869-0.022-30.165 0.317-32.674 1.392-129.356 1.392-129.356l-12.418-4.947c0 0-1.197 96.941-1.399 129.349-0.050 6.007-0.389 15.23-0.151 26.4-3.815-2.199-7.738-4.11-11.502-5.603-37.838-15.1-62.075 0.346-71.478 18.028l2.841 3.808zM680.491 166.919c-79.721-31.809-154.025-12.584-202.903 38.573-21.843-30.821-45.323-57.589-77.088-70.267-27.453-10.961-62.442-8.329-86.355 12.259-6.49-4.24-13.399-7.882-20.711-10.795-62.673-25.009-118.676-5.495-144.846 60.077-29.732 74.514 15.057 185.459 84.667 213.23 16.456 6.577 44.991 12.266 55.599-14.3 11.055-27.727 1.139-90.949 7.363-106.554 0.57-1.435 1.5-2.070 2.949-1.493 14.156 5.646 37.585 134.872 38.335 138.846l12.713 5.070 1.284-129.053-12.425-4.961-1.298 102.256c-7.139-40.008-23.134-115.705-41.335-122.959-8.365-3.346-13.449 0.995-15.288 5.61-6.577 16.463 5.841 77.665-6.728 109.15-7.269 18.187-23.79 17.624-39.669 11.293-57.769-23.047-103.698-122.75-70.966-204.778 19.362-48.525 60.337-80.716 126.76-54.214 6.36 2.538 12.288 5.625 17.927 9.036-6.036 6.483-11.163 14.286-14.898 23.639-14.394 36.114 1.284 76.519 39.128 91.605 15.338 6.144 30.201 5.892 41.934 2.697 0.022 2.913-0.043 5.791-0.231 8.596l3.692 2.481c0.166-1.226 0.202-2.51 0.325-3.757 1.853 7.053 6.577 13.55 11.127 15.36 5.488 2.192 9-2.437 7.904-10.579-1.226-7.853-6.533-16.341-12.028-18.533-1.074-0.433-2.055-0.49-2.971-0.361l-1.312-2.344c-0.707 0.224-1.493 0.382-2.243 0.57-1.767-39.655-23.227-84.285-58.923-110.65 18.526-14.668 44.573-18.086 72.105-7.103 30.907 12.338 53.63 40.152 75.826 71.788-13.045 15.879-23.761 34.369-31.953 54.871-30.944 77.55-15.237 167.381 25.852 214.074-1.248 1.644-1.63 3.887-0.909 6.158l29.097 91.352c0.137 0.368 0.274 0.743 0.454 1.082 0.786 3.144 3.007 5.358 3.815 6.18l175.039 175.032 73.396-73.418-175.039-175.025c-0.786-0.786-3.007-3.014-6.144-3.829-0.382-0.151-0.721-0.31-1.096-0.425l-91.338-29.097c-1.774-0.562-3.534-0.454-5.019 0.195-33.294-45.575-46.484-131.829-16.968-205.81 7.269-18.187 16.903-34.766 28.614-49.859 33.705 48.95 68.11 104.527 129.637 129.067 60.654 24.208 124.798 3.606 147.499-53.306 19.247-48.215-6.216-110.267-72.358-136.675zM781.29 730.285l-26.328-26.321-73.418 73.382 26.357 26.357c8.286 8.286 20.776 9.324 27.828 2.293l47.854-47.883c7.053-7.045 6.021-19.506-2.293-27.828zM609.143 347.396c-56.32-22.478-88.814-80.326-123.623-130.704 44.537-47.854 113.354-70.959 193.651-38.912 60.366 24.086 84.841 81.076 69.279 120.053-18.547 46.505-73.151 75.956-139.307 49.563z" />
<glyph unicode="&#xe911;" glyph-name="educate" d="M191.409 233.313c1.709 12.461 3.62 24.893 5.041 37.39 1.493 12.497 3.137 24.98 4.363 37.513-2.978-12.238-5.553-24.562-8.257-36.857-2.805-12.281-5.098-24.634-7.593-36.958-5.041-24.634-9.735-49.354-14.185-74.081l-0.151-0.887 0.195-0.974c7.312-34.29 14.862-68.521 22.701-102.696 3.714-3.022 7.493-5.964 11.278-8.863-7.716 37.664-15.915 75.257-24.331 112.806 3.937 24.461 7.615 49.001 10.939 73.605zM512.13 953.38c-279.119 0-505.387-226.254-505.387-505.38 0-104.196 31.571-201.029 85.619-281.477l42.712 218.999 96.761 21.439 26.848 26.811 39.849-43.037-22.131-236.724 38.299-42.683 39.143 43.506-22.095 235.902 39.676 43.058 27.042-26.833 95.383-21.086 17.66-141.189 77.665 94.468c11.012 11.012 22.961 15.216 33.114 14.487l146.439 181.818 15.735-12.67-143.62-178.299c8.307-9.887 9.252-26.747-4.521-45.777 0 0-102.761-133.098-128.029-166.782-1.716-2.308-3.461-4.363-5.207-6.252-3.685-2.827-7.428-5.509-11.358-7.904-12.043-7.226-27.114-12.771-37.059-5.661-2.625 1.911-4.817 4.543-6.634 7.536l-4.067 9.382c-1.954 6.173-3.058 12.324-3.642 19.052-1.305 13.939-2.272 27.879-3.714 40.801-1.262 13.016-2.603 25.297-4.017 36.604-2.481 22.643-5.473 41.436-7.413 54.589-1.925 13.161-3.397 20.603-3.397 20.603s1.911-30.287 4.781-75.747c0.858-11.351 1.579-23.675 2.178-36.684 0.599-13.088 1.601-26.595 2.639-41.018 0.498-7.017 0.079-14.942 2.473-22.29 0.115-0.339-1.19-0.671-1.19-1.031v-175.587c28.845-3.75 51.936-5.719 77.882-5.719 279.127 0 506.173 226.275 506.173 505.38s-225.467 505.394-504.594 505.394zM314.649 439.231c-54.337 0-98.419 51.863-98.419 115.827 0 64.101 44.082 115.964 98.419 115.964 54.366 0 98.592-51.863 98.592-115.964 0-63.885-44.111-115.827-98.592-115.827zM820.354 404.732h-102.227l16.283 21.634h85.944c37.196 0 52.21 38.573 52.21 72.408v152.468c0 36.006-16.211 63.575-52.21 63.575h-283.872c-33.835 0-74.961-26.386-74.961-63.575v-152.468c0-36.15 38.797-72.408 74.961-72.408h120.068l-16.283-21.634h-103.785c-47.385 0-96.595 46.65-96.595 94.042v152.468c0 44.335 46.664 85.208 96.595 85.208h283.872c47.349 0 73.843-37.852 73.843-85.208v-152.468c0-49.931-29.509-94.042-73.843-94.042z" />
<glyph unicode="&#xe912;" glyph-name="enable-experts" d="M410.004 29.018c-8.538 42.525-17.848 84.905-27.352 127.264 3.916 24.453 7.601 48.957 10.925 73.526 1.702 12.447 3.613 24.864 5.026 37.347 1.486 12.483 3.13 24.944 4.363 37.463-2.971-12.223-5.56-24.526-8.257-36.806-2.791-12.266-5.084-24.612-7.586-36.914-5.033-24.605-9.714-49.296-14.163-74.002l-0.166-0.887 0.209-0.974c9.101-42.712 18.396-85.403 28.463-127.913l15.533-63.668c1.255-5.25 2.69-10.471 4.046-15.699 1.536-0.274 3.086-0.548 4.622-0.808-1.053 5.892-2.026 11.812-3.195 17.689l-12.468 64.382zM896.18 140.807l-0.173 0.865c-3.541 19.348-7.298 38.645-11.415 57.892-2.026 9.598-3.872 19.261-6.209 28.823-2.25 9.584-4.363 19.211-6.88 28.751 0.779-9.836 1.94-19.6 2.993-29.4 0.952-9.815 2.394-19.543 3.649-29.285 2.423-19.182 5.214-38.299 8.185-57.38-3.476-15.403-6.908-30.843-10.24-46.267 4.493 4.695 8.942 9.454 13.24 14.293 2.243 10.24 4.464 20.48 6.649 30.734l0.202 0.974zM636.164 27.15c10.074 42.518 19.362 85.179 28.448 127.913l0.216 0.952-0.173 0.887c-4.435 24.727-9.115 49.412-14.149 74.024-2.495 12.302-4.803 24.648-7.586 36.907-2.697 12.266-5.279 24.569-8.25 36.799 1.226-12.497 2.863-24.98 4.363-37.463 1.406-12.475 3.31-24.901 5.026-37.347 3.31-24.569 7.002-49.058 10.903-73.526-9.49-42.345-18.8-84.74-27.352-127.264l-12.454-64.346c-1.017-5.041-1.846-10.11-2.733-15.18 1.644 0.339 3.238 0.714 4.86 1.067 1.118 4.298 2.3 8.589 3.339 12.915l15.54 63.661zM158.496 198.461c1.248 9.764 2.697 19.478 3.656 29.285 1.046 9.8 2.207 19.564 2.985 29.4-2.517-9.541-4.63-19.146-6.887-28.751-2.329-9.562-4.168-19.225-6.209-28.823-4.11-19.247-7.875-38.551-11.408-57.892l-0.173-0.865 0.209-0.966c3.425-16.175 6.88-32.306 10.456-48.438 4.168-4.262 8.452-8.437 12.778-12.54-4.399 20.768-8.913 41.486-13.586 62.219 2.978 19.081 5.755 38.191 8.178 57.373zM510.377 948.303c-278.788 0-504.789-226.001-504.789-504.796 0-99.436 28.859-192.079 78.516-270.242l28.009 143.569 75.653 16.759 20.999 20.978 31.16-33.662-17.321-185.092 29.941-33.374 30.583 34.001 36.107-160.198c4.493-1.832 9.029-3.627 13.586-5.336l-41.515 180.224c0 0 41.977 195.115 49.916 201.447 20.862 16.665 55.83 23.566 80.016 40.585 4.009 2.82 7.788 5.87 11.077 9.346-3.288-3.469-16.067-41.407-11.762-56.688 0 0 16.68 29.97 33.684 32.537 10.384-18.122 25.463-39.301 38.847-54.64 7.485-8.574 14.459-15.36 19.773-18.713 6.447 4.060 15.31 13.132 24.583 24.389 12.079 14.632 24.879 32.992 34.052 48.965 16.997-2.56 33.677-32.537 33.677-32.537 5.553 19.68-5.769 56.118-6.425 56.688 0.656-0.57 1.442-1.103 2.142-1.651 20.35-16.233 58.664-26.112 83.168-45.842 10.759-8.675 18.886-19.247 21.518-33.15 4.594-24.316 32.955-169.4 32.955-169.4l-40.311-177.491c4.55 1.839 9.086 3.692 13.593 5.661l36.749 165.326-0.959-10.11 29.948-33.374 30.605 34.023-17.278 184.443 31.016 33.662 21.143-20.978 74.579-16.485 26.083-132.572c45.352 75.718 71.464 164.273 71.464 258.942 0.007 278.788-225.987 504.789-504.782 504.789zM281.86 150.434l-15.959 170.482 31.008 33.662 19.766-19.622-34.816-184.522zM252.524 358.862c-42.474 0-76.959 40.535-76.959 90.545 0 50.126 34.484 90.667 76.959 90.667 42.518 0 77.081-40.542 77.081-90.667 0-49.945-34.491-90.545-77.081-90.545zM612.316 478.41c1.183-4.046 9.699-17.646 11.040-19.939-14.992-16.168-34.852-19.918-54.431-24.035-5.805-1.226-11.697-1.954-17.978-2.762-2.005-0.375-4.060-0.75-6.115-1.139l20.047-29.083c0 0-10.016-22.607-29.545-46.267-5.445-6.606-12.338-8.142-21.288-15.353h-0.274c-7.406 0-13.42 6.533-18.382 11.913-22.521 24.504-32.443 51.366-32.443 51.366l20.033 28.232c-2.041 0.397-4.082 0.375-6.108 0.75-6.281 0.8-12.187 1.327-17.97 2.553-19.593 4.118-39.446 7.752-54.445 23.92 1.356 2.286 9.872 15.85 11.069 19.896 0.216 1.377 0.325 2.762 0.339 4.175 0.029 4.262-0.815 8.762-2.142 13.536-1.255 4.536-2.704 9.007-4.089 13.572-6.613 14.79-10.319 32.667-10.319 49.945 0 64.216 51.056 119.072 114.45 119.072 0.058 0 0.101 0 0.144 0 0.036 0 0.072 0 0.137 0 63.401 0 114.443-54.856 114.443-119.072 0-17.278-3.678-34.412-10.312-49.202-1.377-4.558-2.834-9.447-4.067-13.975-1.334-4.774-2.192-9.454-2.149-13.723 0.007-1.428 0.123-3 0.353-4.377zM748.717 147.831l-35.422 186.296 20.451 20.451 31.167-33.662-16.197-173.085zM777.497 358.862c-42.474 0-76.966 40.535-76.966 90.545 0 50.126 34.491 90.667 76.966 90.667 42.518 0 77.088-40.542 77.088-90.667 0.007-49.945-34.484-90.545-77.088-90.545z" />
<glyph unicode="&#xe913;" glyph-name="influence" d="M453.084 594.576l-3.101-39.511 0.368 0.332 55.173-59.385-8.113 98.376 0.036 0.187zM435.719 372.238l50.025 78.617-40.506 43.57zM890.31 576.743v10.254l-210.576-108.558c10.002 0 18.086-8.113 18.086-18.1v-25.312l192.49 141.716zM371.294 144.535v-181.306c44.674-12.951 91.857-20.026 140.706-20.026 23.184 0 45.957 1.695 68.298 4.731v196.601h-209.004zM512 952.796c-278.788 0-504.789-226.008-504.789-504.796 0-176.106 90.242-331.098 226.946-421.412v117.94h-73.634c-8.791 0-15.93 7.146-15.93 15.922v147.889c0 8.791 7.139 15.93 15.93 15.93h49.52v123.378c0 6.115 4.933 11.048 11.040 11.048h118.423c6.101 0 11.026-4.933 11.026-11.048v-48.186h22.124c3.425 0 6.166-2.755 6.166-6.158v-69.033h21.187l22.463 287.492c0.649 8.279 7.565 14.668 15.872 14.668h74.831c8.307 0 15.209-6.389 15.886-14.668l22.434-287.492h48.229v40.672h-16.766c-10.002 0-18.1 8.091-18.1 18.086v77.312c0 9.988 8.098 18.1 18.1 18.1h30.28l271.663 139.971c7.55 3.901 16.788 3.562 24.057-0.873 7.255-4.421 11.79-12.461 11.79-20.978v-22.773c0-7.788-3.721-15.201-10.016-19.795l-212.913-156.766v-14.221c0-9.995-8.084-18.093-18.086-18.093h-14.242v-40.65h125.534c8.834 0 15.944-7.139 15.944-15.93v-147.874c0-8.791-7.11-15.915-15.944-15.915h-73.605v-157.624c176.38 78.704 299.369 255.474 299.369 461.103 0 278.766-225.987 504.774-504.789 504.774zM519.687 324.269l-6.966 84.711-53.962-84.711z" />
<glyph unicode="&#xe914;" glyph-name="financials" horiz-adv-x="1252" d="M986.074 30.815v530.963h-189.63v-530.963h-75.852v910.222h-189.63v-910.222h-75.852v530.963h-189.63v-530.963h-227.556v-37.926h1175.704v37.926z" />
<glyph unicode="&#xe915;" glyph-name="logi-partners" horiz-adv-x="1414" d="M516.389 137.923c10.923 28.087 7.266 59.441-13.653 80.945-18.822 19.31-46.275 24.381-72.46 18.383 7.314 25.99 3.267 53.638-15.604 73.143-18.871 19.261-46.275 24.381-72.509 18.286 7.266 25.99 3.267 53.638-15.653 73.045-29.647 30.476-80.896 29.16-114.639-2.974-33.499-32.134-54.906-90.405-25.064-124.684 29.842-34.133 64.122-13.41 90.356-7.412-7.314-25.99-29.16-50.078-2.292-84.017 26.868-33.987 64.171-13.361 90.405-7.509-7.314-25.795-28.184-52.37-2.389-83.822 26.088-31.598 68.706-14.775 96.89-6.046-10.923-27.892-34.133-58.027-4.242-91.867 29.794-33.987 98.84-18.286 132.584 13.897 33.548 32.085 36.766 83.042 7.217 113.615-20.48 20.968-50.907 25.844-78.946 17.018zM1200.908 788.017c-33.792-7.119-54.955 10.581-54.955 10.581s-64.951 55.881-137.996 117.321c-59.294 49.932-90.405 47.982-133.51 25.015-71.095-37.644-241.615-133.413-322.56-182.516-29.842-16.725-50.761-39.448-50.761-72.85 0-43.203 55.637-99.864 122.734-64.073 35.499 17.213 120.442 61.489 177.786 91.721 62.464 32.963 101.327-5.218 101.327-5.218s225.524-224.305 289.061-285.111c41.155-39.595 97.914-21.26 116.005-18.968 18.042 2.292 106.057 19.505 106.057 19.505v411.258c0 0-130.146-29.16-213.187-46.665zM1131.276 351.842c-243.614 243.614-129.024 129.024-260.096 260.437 0 0-39.448 39.156-91.331 16.384-36.474-15.994-83.432-37.693-118.735-54.37-38.814-20.285-66.706-26.673-79.872-26.575-74.996 0.536-135.899 60.757-135.899 135.704 0 48.664 25.795 90.941 64.366 115.029 54.077 37.449 178.664 103.668 178.664 103.668s-37.888 48.128-121.076 48.128c-83.090 0-256.829-113.81-256.829-113.81s-49.25-31.549-119.467-3.072l-135.314 47.104v-470.455c0 0 38.619-11.215 73.338-25.405 7.899 22.382 20.529 43.057 38.083 60.075 57.637 54.857 153.161 55.491 205.58 1.414 15.75-16.384 26.819-35.938 32.427-57.588 21.163-6.534 40.277-18.042 55.637-33.841 15.848-16.384 26.868-35.986 32.475-57.637 21.163-6.485 40.18-18.091 55.637-33.987 17.408-17.798 28.965-39.546 34.377-62.952 22.089-6.388 41.984-18.383 58.075-34.767 31.5-32.378 42.667-76.264 35.889-118.686 0 0 0.098 0 0.195-0.098 0.488-0.683 19.505-21.797 31.354-33.792 23.259-23.259 61.147-23.259 84.456 0 23.162 23.259 23.259 61.147 0 84.456-0.878 0.829-83.822 87.625-77.141 94.403 6.68 6.68 112.396-103.326 114.298-105.326 23.259-23.259 61.147-23.259 84.407 0s23.211 61.050 0 84.358c-1.122 1.024-5.851 5.608-7.656 7.461 0 0-104.741 93.282-96.792 101.278 8.046 8.094 138.24-113.42 138.484-113.42 23.357-21.114 59.441-20.968 81.969 1.609 21.894 21.894 22.382 56.466 2.974 79.872-0.439 1.268-99.23 104.546-91.526 112.299 7.802 7.851 105.618-92.794 105.813-92.989 23.162-23.259 61.099-23.259 84.358 0 23.211 23.162 23.211 61.050 0 84.456-0.341 0.293-0.829 0.39-1.122 0.634z" />
<glyph unicode="&#xe916;" glyph-name="logi-team" d="M110.406 581.865c-5.182-25.6 20.914-107.706 81.579-107.706 37.609 0 77.172 50.052 82.013 89.15-27.245 39.657-37.857 72.549-37.857 72.549s-59.051 4.034-125.735-53.993zM191.984 463.112c-9.837 0-21.659 2.638-30.627 7.199l-33.047-52.162 63.736-32.489 63.457 32.489-33.016 52.255c-9.030-4.624-20.604-7.292-30.503-7.292zM534.962 598.373c-1.086 1.707-2.172 3.6-3.693 5.461-1.334 1.893-3.103 3.879-4.903 5.741-1.769 1.986-4.127 3.786-6.175 5.616-2.358 1.583-4.686 3.413-7.261 4.779-2.513 1.583-5.337 2.544-7.944 3.817-2.948 0.9-5.523 1.924-8.378 2.42-0.652 0.186-1.334 0.248-1.986 0.372-5.182-6.734-11.636-13.312-18.96-19.084-28.982-22.714-62.619-26.531-75.528-8.595-2.234-1.148-3.941-3.072-4.655-4.53-3.258-5.492-4.065-13.343-2.048-21.163 3.041-11.636 10.83-18.587 16.912-19.394l5.027-0.652 1.334-4.903c11.947-43.070 43.846-88.809 80.027-88.809 36.15 0 68.143 45.77 80.027 88.809l1.334 4.903 5.027 0.652c6.175 0.714 13.871 7.664 16.88 19.394 1.955 7.82 1.241 15.67-2.017 21.163-1.148 1.955-3.227 4.499-6.485 5.337-0.683 0.155-1.52 0.093-2.358 0.093-2.42-3.941-5.523-7.851-9.278-11.636-23.893-23.8-11.698 12.195-42.698 43.194-8.409 8.44-19.053 14.398-29.386 19.053-0.807-2.513-1.862-5.182-3.134-7.789 2.979-1.552 5.71-3.568 8.316-5.43 2.762-2.42 5.585-4.655 7.944-7.323 2.482-2.513 4.437-5.368 6.485-7.913 1.769-2.855 3.6-5.492 4.841-8.161 1.334-2.669 2.513-5.182 3.351-7.571 0.993-2.327 1.583-4.686 2.079-6.703 0.496-1.986 0.9-3.662 1.086-5.151 0.496-2.979 0.714-4.53 0.714-4.53s-0.714 1.52-1.986 4.096c-0.496 1.241-1.427 2.731-2.513 4.437zM819.914 480.116c42.387 0 80.927 62.712 81.361 104.231 0.776 69.353-47.507-8.13-102.896-2.203 37.143 45.801-66.591 58.709-59.888 2.172 6.206-52.069 36.895-104.2 81.424-104.2zM511.038 944.485c-265.216 0-480.97-215.754-480.97-480.97s215.754-480.97 480.97-480.97 480.97 215.754 480.97 480.97-215.754 480.97-480.97 480.97zM819.883 706.544c72.487 0 102.183-37.329 101.562-99.824-0.962-89.957-58.616-143.639-101.562-143.639-50.269 0-100.538 53.651-101.5 143.639-0.683 62.495 29.075 99.824 101.5 99.824zM343.257 842.116h335.469v-51.572h-335.469v51.572zM620.234 550.679c0-125.673-81.703-106.93-123.687-106.93-42.046 0-123.749-16.694-123.749 106.93 0 85.271 55.389 154.531 123.749 154.531 68.298 0 123.687-69.26 123.687-154.531zM511.038 13.576c-237.971 0-432.842 185.809-448.419 419.933 4.22 4.375 8.626 8.595 13.653 12.319-3.351 22.559-5.182 57.685-5.182 109.816 0 0.931 0.248 1.769 0.248 2.7 8.006 37.112 20.821 72.394 37.392 105.503 2.979 3.568 5.554 7.571 8.782 10.768 0 0 28.982 32.24 74.442 32.24 66.684 0 120.894-67.553 120.894-151.024 0-52.286-1.769-87.443-5.151-110.064 14.429-10.861 25.414-24.7 34.133-39.688-0.931-1.21-1.893-2.358-2.793-3.568-5.12-6.485-10.271-14.801-15.267-23.273-4.406-8.533-8.844-17.439-12.66-26.779-3.631-9.402-7.106-18.991-9.681-28.858-2.886-9.744-4.934-19.673-6.827-29.448-1.831-9.775-3.041-19.518-3.941-28.92-1.924-18.773-2.11-36.368-1.489-51.355 1.21-30.068 5.958-49.742 5.958-49.742s1.024 4.903 2.793 13.529c1.645 8.564 4.003 20.728 6.423 35.219 2.7 14.305 5.834 31.061 9.185 48.966 1.924 8.844 3.879 17.967 5.865 27.214 2.203 9.154 4.344 18.525 6.92 27.679 2.358 9.247 5.182 18.339 8.099 27.214 2.7 8.937 5.989 17.439 9.278 25.724 3.444 7.882 6.299 15.639 10.612 23.211 0.962 1.924 1.893 3.786 2.824 5.648 0.528 1.396 1.862 3.289 2.7 4.841 1.893 3.351 3.941 6.485 5.927 9.495 7.851 12.164 15.298 21.938 20.604 28.734 5.213 6.765 8.72 10.457 8.72 10.457 7.944-8.657 15.205-15.95 25.197-21.101 42.48-21.814 70.904-39.346 70.966-39.408h0.652c0 0 37.95 17.687 80.368 39.408 11.512 5.927 21.442 14.646 30.348 25.166 6.33-2.979 11.729-6.299 16.012-9.868 14.584-10.954 25.6-24.917 34.32-40.029-0.962-1.21-1.893-2.42-2.855-3.662-5.151-6.485-10.271-14.801-15.267-23.273-4.437-8.533-8.875-17.439-12.66-26.779-3.631-9.402-7.106-18.991-9.681-28.858-2.855-9.744-4.934-19.673-6.796-29.448s-3.041-19.518-3.941-28.92c-1.924-18.773-2.11-36.368-1.52-51.355 1.21-30.068 5.989-49.742 5.989-49.742s1.024 4.903 2.793 13.529c1.645 8.564 4.003 20.728 6.423 35.219 2.7 14.305 5.834 31.061 9.185 48.966 1.924 8.844 3.879 17.967 5.865 27.214 2.203 9.154 4.344 18.525 6.889 27.679 2.389 9.247 5.182 18.339 8.13 27.214 2.669 8.937 5.958 17.439 9.247 25.724 3.475 7.882 6.33 15.639 10.643 23.211 0.962 1.924 1.893 3.786 2.793 5.648 0.528 1.396 1.862 3.289 2.731 4.841 1.862 3.351 3.941 6.485 5.896 9.495 3.972 6.082 7.82 11.636 11.357 16.446l55.048 25.321 28.393 23.924 45.646-45.397-19.704-131.6c-0.031-0.465 0.062-0.869 0.31-1.303l20.604-28.176c0.341-0.434 0.838-0.714 1.396-0.714 0.621 0 1.086 0.31 1.458 0.714l20.542 28.176c0.31 0.434 0.403 0.838 0.31 1.303l-19.642 131.6 45.646 45.397 28.362-23.924 59.144-27.183c1.117-0.465 2.203-1.241 3.351-1.769-19.301-230.524-212.713-412.176-447.984-412.176z" />
<glyph unicode="&#xe917;" glyph-name="mission" d="M914.761 699.867l-12.727-12.727-25.051 1.792-28.855-0.073-10.094-9.509c46.482-65.353 74.057-145.042 74.057-231.351 0-220.928-179.127-400.055-400.091-400.055s-400.091 179.127-400.091 400.055c0 221.001 179.127 400.091 400.091 400.091 86.309 0 165.998-27.611 231.351-74.021l11.557 12.288c0.256 8.594 0.037 17.006-0.695 25.088l-2.231 25.49 13.056 13.056c-73.289 46.299-159.927 73.435-253.038 73.435-262.583 0-475.429-212.846-475.429-475.429s212.846-475.429 475.429-475.429 475.429 212.846 475.429 475.429c0 92.635-26.88 178.798-72.667 251.867zM655.982 681.143c-41.874 25.929-91.099 41.143-143.982 41.143-151.479 0-274.286-122.77-274.286-274.286 0-151.479 122.807-274.286 274.286-274.286s274.286 122.807 274.286 274.286c0 52.882-15.214 102.107-41.143 144.018l-54.674-51.419c14.446-27.721 22.674-59.136 22.674-92.562 0-111.067-90.039-201.143-201.143-201.143s-201.143 90.039-201.143 201.106c0 111.104 90.039 201.143 201.143 201.143 33.39 0 64.805-8.265 92.526-22.638l51.456 54.638zM512 539.429c-50.505 0-91.429-40.923-91.429-91.429s40.923-91.429 91.429-91.429 91.429 40.923 91.429 91.429c0 3.365-0.622 6.51-0.951 9.801l-52.846-49.701-0.146 0.073c-9.801-9.253-22.967-15.031-37.486-15.031-30.318 0-54.857 24.576-54.857 54.857 0 14.555 5.742 27.685 14.994 37.486l-0.11 0.11 49.701 52.846c-3.218 0.366-6.4 0.987-9.728 0.987zM808.302 763.063l-296.302-315.063 314.331 295.68 51.2 0.256 3.438-0.293 90.222 90.258-63.634-0.549-83.675-83.639-10.203 10.24 83.602 83.639 1.609 62.647-90.002-90.002c1.573-17.883 1.207-35.657-0.585-53.175z" />
<glyph unicode="&#xe918;" glyph-name="vision" horiz-adv-x="1593" d="M796.444 941.113c-408.462 0-739.556-330.809-739.556-474.226 0-143.36 331.093-474.112 739.556-474.112s739.556 340.139 739.556 474.112c0 134.030-331.093 474.226-739.556 474.226zM796.444 68.665c-219.932 0-398.222 178.347-398.222 398.222 0 219.989 178.29 398.222 398.222 398.222s398.222-178.233 398.222-398.222c0-219.876-178.29-398.222-398.222-398.222zM796.444 409.998l177.778 277.333c-48.811 39.424-110.194 64-177.778 64-157.127 0-284.444-127.317-284.444-284.444s127.317-284.444 284.444-284.444 284.444 127.317 284.444 284.444c0 39.879-8.306 77.71-23.097 112.128l-261.348-169.017z" />
<glyph unicode="&#xe919;" glyph-name="official-documentation" horiz-adv-x="843" d="M779.475 807.394h-28.28v-695.416c0-46.2-37.587-83.787-83.817-83.787h-514.831v-25.781c0-29.515 23.944-53.459 53.459-53.459h573.35c29.515 0 53.519 23.944 53.519 53.459v751.496c0 29.515-23.883 53.489-53.399 53.489zM637.169 88.606c29.515 0 53.459 23.944 53.459 53.459v751.526c0 29.515-23.944 53.489-53.459 53.489h-382.042v-17.709c0.241-1.837 0.331-3.765 0.331-5.662v-146.492c0-41.562-33.762-75.324-75.324-75.324h-146.462c-1.536 0-3.132 0.12-4.638 0.211h-18.613v-560.038c0-29.515 23.944-53.459 53.459-53.459h573.289zM174.381 586.872h373.941c13.944 0 25.299-11.324 25.299-25.269s-11.354-25.269-25.299-25.269h-373.941c-13.944 0-25.239 11.324-25.239 25.269s11.294 25.269 25.239 25.269zM174.381 449.897h373.941c13.944 0 25.299-11.324 25.299-25.299 0-13.944-11.354-25.269-25.299-25.269h-373.941c-13.944 0-25.239 11.324-25.239 25.269 0 14.005 11.294 25.299 25.239 25.299zM149.143 295.635c0 13.944 11.294 25.269 25.239 25.269h187.031c13.944 0 25.269-11.324 25.269-25.269s-11.415-25.269-25.359-25.269h-186.94c-13.944 0.030-25.239 11.354-25.239 25.269zM33.672 732.25h146.884c24.456 0.181 44.303 19.998 44.484 44.484v147.004c0 13.523-11.113 22.528-22.648 22.528-5.542 0-11.113-2.018-15.752-6.716l-168.96-168.87c-14.125-14.185-4.126-38.43 15.992-38.43z" />
<glyph unicode="&#xe91a;" glyph-name="arrow-dropdown-01" horiz-adv-x="1843" d="M923.546 38.912l-855.45 855.347 72.397 72.397 783.053-782.95 782.746 782.95 72.397-72.397z" />
<glyph unicode="&#xe91b;" glyph-name="arrow-go-01" horiz-adv-x="585" d="M98.962-16.75l-51.712 51.785 412.965 412.965-412.965 412.891 51.712 51.712 464.677-464.603z" />
<glyph unicode="&#xe91c;" glyph-name="icon-calendar" horiz-adv-x="926" d="M689.883 837.364v73.874c0 13.458-10.923 24.381-24.381 24.381s-24.381-10.923-24.381-24.381v-73.143h-341.333v73.143c0 13.458-10.923 24.381-24.381 24.381s-24.381-10.923-24.381-24.381v-73.143h-7.217c-120.978 0-219.429-98.45-219.429-219.429v-438.857c0-120.978 98.45-219.429 219.429-219.429h438.857c120.978 0 219.429 98.45 219.429 219.429v438.857c0 118.54-94.598 214.796-212.212 218.697zM243.81 789.333h7.217v-89.381c0-13.458 10.923-24.381 24.381-24.381s24.381 10.923 24.381 24.381v89.381h341.333v-89.381c0-13.458 10.923-24.381 24.381-24.381s24.381 10.923 24.381 24.381v88.649c90.697-3.901 163.45-78.312 163.45-169.935v-56.905h-780.19v56.905c0 94.11 76.556 170.667 170.667 170.667zM682.667 9.143h-438.857c-94.11 0-170.667 76.556-170.667 170.667v333.19h780.19v-333.19c0-94.11-76.556-170.667-170.667-170.667zM224.597 213.406h97.524v-97.524h-97.524v97.524zM419.645 213.406h97.524v-97.524h-97.524v97.524zM614.693 213.406h97.524v-97.524h-97.524v97.524zM224.597 408.454h97.524v-97.524h-97.524v97.524zM419.645 408.454h97.524v-97.524h-97.524v97.524zM614.693 408.454h97.524v-97.524h-97.524v97.524z" />
<glyph unicode="&#xe91d;" glyph-name="icon-featured" horiz-adv-x="1214" d="M595.437 937.662c-117.343-47.673 69.86-276.632-506.235-510.786-49.759-20.252-62.388-101.186-41.529-149.58 20.783-48.356 88.823-96.597 138.543-76.345 8.685 3.451 40.277 13.653 40.277 13.653s0-139.719 0-252.321c82.451 182.31 215.495 328.363 288.692 328.363 181.589 0 311.22-134.599 400.536-98.304 69.025 28.065 54.955 228.2-29.848 425.681-84.84 197.404-221.374 347.743-290.437 319.64zM856.292 297.737c-15.284-6.22-118.519 75.169-184.434 228.655-65.877 153.372-57.647 293.66-42.325 299.918 15.36 6.182 116.015-91.97 181.893-245.381 65.953-153.448 60.226-276.935 44.866-283.193zM1079.865 617.87c-5.044 21.239-8.799 43.615-18.697 62.919-8.647 19.949-17.218 39.898-30.341 56.965-5.879 8.913-11.871 17.598-17.977 26.093-6.372 8.23-14.298 15.057-21.201 22.414-7.13 7.13-14.146 14.146-21.049 21.011-7.13 6.523-15.55 11.264-22.945 16.725-15.322 10.278-28.9 21.201-44.222 26.586-14.564 6.637-28.065 12.098-39.936 16.839-12.478 3.224-23.552 5.31-32.427 7.358-17.939 3.755-28.027 5.31-28.027 5.31s9.444-4.855 25.79-12.326c8.154-3.755 18.129-7.889 29.127-13.312 10.316-7.016 21.807-14.829 34.551-22.68 13.274-6.978 24.424-19.304 37.547-29.961 6.22-5.727 13.426-10.733 19.304-17.408 5.765-6.751 11.681-13.653 17.673-20.632 5.765-7.13 12.591-13.577 17.863-21.428 4.817-8.154 9.861-16.232 15.095-24.273 11.605-15.474 18.66-33.716 26.131-51.693 9.557-17.484 12.553-36.105 17.598-54.082 6.182-17.105 6.675-38.191 8.799-57.154 0.531-8.837 2.807-20.745 1.896-26.624-0.341-8.875-0.683-17.598-0.948-26.055 0.379-17.18-4.286-32.73-5.916-47.711-1.555-15.17-7.016-27.534-9.519-39.708-2.579-12.060-6.903-22.3-10.505-30.606-6.827-16.763-10.278-26.624-10.278-26.624s6.372 8.268 16.687 23.135c5.272 7.396 11.492 16.384 16.801 28.217 5.196 11.605 14.033 24.424 17.711 39.86 4.134 15.322 11.605 31.592 13.009 50.024 1.289 9.14 2.655 18.546 4.020 28.179 2.048 12.629 0.076 19.721 0.265 30.075-1.214 19.456 0.683 38.76-5.879 60.568zM1170.735 582.258c-1.214 19.418 0.721 38.76-5.879 60.53-5.044 21.239-8.837 43.615-18.66 62.919-8.685 19.949-17.256 39.898-30.341 56.965-5.879 8.913-11.871 17.598-17.977 26.093-6.372 8.23-14.298 15.057-21.201 22.414-7.13 7.13-14.146 14.146-21.011 21.011-7.13 6.523-15.588 11.264-22.983 16.725-15.284 10.278-28.862 21.239-44.184 26.624-14.601 6.637-28.065 12.098-39.936 16.839-12.516 3.224-23.552 5.31-32.427 7.358-17.939 3.755-28.027 5.31-28.027 5.31s9.444-4.855 25.79-12.326c8.116-3.755 18.129-7.889 29.127-13.312 10.316-7.016 21.807-14.829 34.513-22.68 13.312-6.978 24.424-19.304 37.547-29.961 6.22-5.765 13.426-10.733 19.304-17.446 5.765-6.751 11.681-13.615 17.636-20.632 5.803-7.13 12.629-13.577 17.863-21.428 4.855-8.154 9.861-16.232 15.095-24.273 11.605-15.474 18.697-33.716 26.131-51.693 9.557-17.484 12.553-36.068 17.598-54.082 6.182-17.105 6.675-38.191 8.799-57.154 0.531-8.875 2.769-20.745 1.896-26.624-0.341-8.875-0.645-17.598-0.948-26.055 0.417-17.18-4.248-32.73-5.841-47.711-1.593-15.17-7.054-27.534-9.519-39.708-2.579-12.060-6.903-22.3-10.505-30.606-6.827-16.763-10.278-26.624-10.278-26.624s6.372 8.268 16.687 23.135c5.272 7.396 11.492 16.384 16.801 28.217 5.196 11.643 13.995 24.462 17.673 39.898 4.134 15.284 11.605 31.592 12.971 49.986 1.327 9.14 2.655 18.546 4.058 28.179 2.010 12.629 0.038 19.721 0.228 30.113z" />
<glyph unicode="&#xe91e;" glyph-name="icon-videos" d="M890.092 920.615h-756.185c-51.988 0-94.050-42.535-94.050-94.523l-0.473-850.708 189.086 189.086h661.622c51.988 0 94.523 42.535 94.523 94.444v567.178c0 51.988-42.535 94.523-94.523 94.523zM666.821 499.042l-238.277-134.892c-4.884-2.757-10.437-4.096-15.833-4.096-5.514 0-4.687 1.418-9.61 4.293-9.767 5.671-9.374 16.108-9.374 27.372v269.863c0 11.264-0.394 21.74 9.374 27.372 9.767 5.711 18.629 5.79 28.436 0.197l236.465-134.853c9.964-5.671 15.321-16.226 15.321-27.609 0-11.461-6.577-22.016-16.502-27.648z" />
<glyph unicode="&#xe91f;" glyph-name="tick-01" horiz-adv-x="1339" d="M492.623 17.526l-386.127 386.127 55.69 55.69 330.437-330.437 688.522 688.522 55.69-55.69z" />
<glyph unicode="&#xe920;" glyph-name="facebook" d="M672.445 771.53h91.082v154.031c-15.845 2.048-69.901 6.791-132.958 6.791-131.449 0-221.453-80.249-221.453-227.651v-127.030h-148.642v-172.086h148.642v-441.883h177.853v441.883h148.426l22.205 172.086h-170.631v109.945c0 49.907 13.851 83.914 85.477 83.914z" />
<glyph unicode="&#xe921;" glyph-name="linkedin-01" d="M743.538 623.73c-103.481 0-117.76-56.775-174.649-96.882v101.888h-189.326c2.446-56.889 0-625.721 0-625.721h189.326v347.762c0 17.749 4.153 34.987 9.273 47.502 14.108 35.044 55.922 71.566 109.739 71.566 70.656 0 108.544-53.817 108.544-132.722v-334.108h170.667v356.75c0 180.11-95.175 263.964-223.573 263.964zM172.715 685.625h1.308c67.925 0 110.251 47.332 110.251 103.652-1.138 57.572-42.268 103.708-109.056 103.708-66.674 0-110.308-46.194-110.308-103.708 0-56.32 42.325-103.652 107.804-103.652zM56.889 628.736h227.556v-625.721h-227.556v625.721z" />
<glyph unicode="&#xe922;" glyph-name="mail_viv" d="M512.162 283.783l-101.969 89.357-291.193-249.587c10.563-10.024 24.684-16.115 40.529-16.115h704.997c15.791 0 29.912 6.090 40.475 16.115l-291.193 249.587-101.645-89.357zM905 772.285c-10.348 10.186-24.684 16.276-40.475 16.276h-704.997c-15.522 0-29.965-6.036-40.529-16.276l393.162-336.734 392.839 336.734zM53.895 690.419v-488.502l284.295 241.502zM685.811 443.419l284.295-241.502v488.717z" />
<glyph unicode="&#xe923;" glyph-name="pinterest_viv" horiz-adv-x="829" d="M783.506 661.187c-25.99 189.635-215.333 286.281-416.914 263.704-159.695-17.798-318.513-146.773-325.291-331.386-4.145-112.542 27.843-196.901 135.119-220.599 46.275 82.018-15.019 99.913-24.576 159.451-39.351 243.127 280.381 409.064 447.683 239.323 116.053-117.76 39.595-479.427-147.115-441.637-179.005 35.791 87.625 323.535-55.052 380.099-116.005 45.982-177.883-140.337-122.782-232.936-32.183-159.451-101.669-309.443-73.533-509.318 91.136 66.267 121.905 193.146 147.115 325.339 45.982-27.843 70.607-56.905 128.926-61.538 215.674-16.482 336.116 215.284 306.42 429.495v0z" />
<glyph unicode="&#xe924;" glyph-name="twitter-01" d="M975.336 735.403c-34.085-15.165-70.754-25.356-109.227-29.891 39.351 23.503 69.534 60.757 83.627 105.228-36.669-21.894-77.336-37.693-120.686-46.178-34.67 36.962-84.114 59.977-138.776 59.977-105.033 0-190.074-85.138-190.074-190.074 0-14.872 1.609-29.452 4.876-43.349-158.037 7.899-298.13 83.578-391.948 198.656-16.286-28.087-25.698-60.757-25.698-95.622 0-65.926 33.548-124.099 84.553-158.184-31.159 0.975-60.465 9.509-86.114 23.698v-2.389c0-92.111 65.536-168.96 152.478-186.368-15.896-4.291-32.768-6.68-50.078-6.68-12.19 0-24.186 1.219-35.791 3.413 24.186-75.532 94.501-130.487 177.64-132.096-65.048-50.956-146.968-81.335-236.105-81.335-15.311 0-30.476 0.878-45.349 2.682 84.114-53.882 183.979-85.431 291.45-85.431 349.72 0 540.965 289.597 540.965 540.965 0 8.192-0.195 16.384-0.585 24.576 37.108 26.77 69.339 60.27 94.842 98.402z" />
<glyph unicode="&#xe925;" glyph-name="donate-icon_vv" horiz-adv-x="1365" d="M1233.92 787.188l-13.653 100.645c-4.389 32.67-34.718 55.735-67.389 51.298l-1054.184-142.677c-32.67-4.437-55.686-34.767-51.298-67.486l12.532-92.453c2.877-21.406 21.016-18.968 21.016-18.968l1137.566 154.039c17.164 2.341 15.409 15.604 15.409 15.604zM1256.058 623.397c0 0-3.218 24.235-27.989 20.87l-1129.472-152.966c-18.676-2.536-16.677-17.359-16.677-17.359l59.392-438.223c4.389-32.67 34.718-55.784 67.389-51.346l1054.184 142.775c32.67 4.389 55.686 34.767 51.298 67.389l-58.124 428.861zM314.466 282.648l-111.080-15.019c-16.628-2.243-32.232 9.557-34.475 26.429l-10.338 76.215c-2.292 16.823 9.509 32.378 26.283 34.621l110.982 15.067c16.725 2.243 32.329-9.655 34.621-26.38l10.289-76.264c2.292-16.725-9.557-32.378-26.283-34.67zM549.693 314.539l-110.933-15.019c-16.774-2.292-32.28 9.606-34.621 26.429l-10.24 76.215c-2.292 16.774 9.509 32.378 26.331 34.621l110.885 15.067c16.872 2.243 32.28-9.655 34.572-26.38l10.386-76.264c2.292-16.823-9.655-32.378-26.38-34.67zM784.433 354.67l-110.885-15.019c-16.872-2.243-32.475 9.557-34.67 26.331l-10.386 76.312c-2.292 16.725 9.557 32.378 26.38 34.572l110.933 15.067c16.677 2.292 32.28-9.606 34.67-26.38l10.289-76.264c2.292-16.725-9.606-32.329-26.331-34.621z" />
<glyph unicode="&#xe926;" glyph-name="gift-icon-01" horiz-adv-x="807" d="M220.936 654.445v-0.714h152.483v152.452h-0.714c-7.044 69.942-66.064 124.649-137.992 124.649-76.459 0-138.426-61.968-138.426-138.395 0-71.928 54.458-130.979 124.649-137.992zM234.713 873.984c42.325 0 77.203-32.178 81.33-73.573h0.496v-89.833h-90.019v0.528c-41.146 4.065-73.325 38.726-73.325 81.113 0 45.211 36.492 81.765 81.517 81.765zM572.664 654.196c61.936 6.392 110.127 58.368 110.127 121.763 0 67.832-54.706 122.477-122.477 122.477-63.395 0-115.433-48.19-121.763-110.158h-0.465v-134.547h134.578v0.465zM567.792 703.876h-79.593v79.562h0.496c3.631 36.336 34.351 64.636 71.649 64.636 39.936 0 72.114-32.178 72.114-72.114 0-37.267-28.3-67.987-64.636-71.618v-0.465zM31.030 594.742h346.205v-277.628h-346.205v277.628zM31.030 256.605h346.205v-291.437h-346.205v291.437zM437.744 594.742h338.013v-277.628h-338.013v277.628zM437.744 256.605h338.013v-291.437h-338.013v291.437z" />
<glyph unicode="&#xe927;" glyph-name="contact-icon_v" d="M217.833 476.253v380.742h571.345v-380.742l139.636 96.396-78.708 66.001v248.785c0 16.803-13.638 30.441-30.441 30.441h-632.32c-16.803 0-30.441-13.638-30.441-30.441v-274.758l-61.719-51.712 122.647-84.713zM707.91 670.673h-391.82c-12.8 0-23.273-10.426-23.273-23.273 0-12.8 10.473-23.273 23.273-23.273h391.82c12.8 0 23.273 10.426 23.273 23.273s-10.473 23.273-23.273 23.273zM707.91 549.655h-391.82c-12.8 0-23.273-10.426-23.273-23.273s10.473-23.273 23.273-23.273h391.82c12.8 0 23.273 10.426 23.273 23.273 0 12.8-10.473 23.273-23.273 23.273zM656.989 303.663l239.942-199.168c13.172-10.938 14.988-30.534 4.049-43.706-6.144-7.354-14.941-11.171-23.924-11.171-6.935 0-13.964 2.327-19.782 7.121l-253.347 210.339-91.927-63.535-91.974 63.488-253.347-210.339c-13.172-10.938-32.721-9.123-43.66 4.049s-9.169 32.768 4.049 43.706l239.942 199.168-320.465 221.417v-498.316c0-26.857 21.783-48.64 48.64-48.64h833.629c26.857 0 48.64 21.783 48.64 48.64v498.316l-320.465-221.37zM707.91 783.965h-391.82c-12.8 0-23.273-10.426-23.273-23.273s10.473-23.273 23.273-23.273h391.82c12.8 0 23.273 10.426 23.273 23.273s-10.473 23.273-23.273 23.273z" />
<glyph unicode="&#xe928;" glyph-name="news-icon_v" horiz-adv-x="1257" d="M1075.107 783.174v148.899h-1042.572v-819.293c0 0 0-148.899 148.899-148.899h930.909c0 0 111.802 2.374 111.802 148.899v670.394h-149.039zM181.434 38.447c-74.333 0-74.333 74.38-74.333 74.38v744.727h893.626v-744.727c0-34.164 10.566-57.996 25.088-74.38h-844.381zM181.434 755.2h744.727v-120.925h-744.727v120.925zM591.081 410.81h335.081v-74.566h-335.081v74.566zM591.081 559.709h335.081v-74.566h-335.081v74.566zM181.434 559.709h335.081v-372.364h-335.081v372.364z" />
<glyph unicode="&#xe929;" glyph-name="expert-icon-01" d="M620.945 421.732c79.56 53.114 134.5 159.744 134.5 255.288 0 134.367-108.945 243.623-243.534 243.623-134.5 0-244.068-109.256-244.068-243.623 0-95.544 54.94-201.594 135.123-255.288-191.221-48.84-332.711-214.995-332.711-337.608 0-145.007 883.445-145.007 883.445 0 0.045 123.147-141.624 288.723-332.755 337.608zM511.955-24.287l-123.904 123.192 104.27 251.548h-1.069l-40.114 46.748c19.233-7.213 39.535-11.219 60.861-11.219s41.761 4.007 60.861 11.219l-40.070-46.748h-0.935l104.047-251.548-123.949-123.192z" />
<glyph unicode="&#xe92a;" glyph-name="join-expert-01" d="M512 952.938c-278.422 0-504.938-226.516-504.938-504.938s226.516-504.938 504.938-504.938c278.422 0 504.938 226.516 504.938 504.938s-226.516 504.938-504.938 504.938zM512-35.752c-266.741 0-483.752 217.010-483.752 483.752s217.010 483.752 483.752 483.752c266.741 0 483.752-217.010 483.752-483.752s-217.010-483.752-483.752-483.752zM749.031 381.419c0 66.066-76.002 154.935-178.579 181.17 42.704 28.517 72.196 85.712 72.196 137.018 0 72.090-58.467 130.719-130.677 130.719-72.196 0-130.994-58.629-130.994-130.719 0-51.306 29.491-108.205 72.513-137.011-102.605-26.236-178.536-115.38-178.536-181.17 0-77.824 474.077-77.824 474.077-0.007zM501.407 524.32h-0.579l-21.532 25.092c10.304-3.877 21.214-6.024 32.676-6.024 11.419 0 22.373 2.147 32.648 6.024l-21.49-25.092h-0.508l55.819-135.006-66.468-66.080-66.511 66.080 55.946 135.006zM314.537 162.191h394.939v-28.114h-394.939v28.114zM243.917 225.75h536.181v-28.114h-536.181v28.114z" />
<glyph unicode="&#xe92b;" glyph-name="join-logi-icon-01" d="M815.646 556.424c42.225 0 98.756 52.706 99.75 141.041 0.602 61.32-28.582 97.973-99.75 97.973-71.048 0-100.292-36.683-99.659-97.973 0.964-88.365 50.296-141.041 99.659-141.041zM791.944 677.105c61.109-6.536 114.417 78.999 113.574 2.44-0.542-45.869-43.068-115.080-89.811-115.080-49.122 0-83.004 57.525-89.811 115.019-7.439 62.404 107.038 48.188 66.048-2.379zM997.286 428.905c-0.241 0.753-0.482 1.506-0.693 2.259l-0.873 2.771c-11.294 35.509-25.419 69.271-25.419 69.271-3.765 8.915-12.77 14.667-21.293 18.191l-58.067 26.684-27.829 23.522-44.815-44.544h-0.060l19.366-129.235c0.060-0.452-0.060-0.873-0.301-1.265l-20.239-27.678c-0.301-0.452-0.813-0.693-1.416-0.693-0.542 0-0.994 0.271-1.355 0.693l-20.179 27.678c-0.301 0.392-0.422 0.813-0.361 1.265l19.366 129.235h-0.060l-44.755 44.544-27.889-23.522-54.061-24.877c-3.464-4.728-7.228-10.15-11.113-16.143-1.928-2.982-4.006-6.024-5.813-9.306-0.813-1.536-2.168-3.403-2.65-4.759-0.934-1.807-1.837-3.674-2.771-5.542-4.247-7.469-6.987-15.059-10.481-22.799-3.162-8.102-6.415-16.474-9.065-25.269-2.891-8.704-5.602-17.589-7.951-26.654-2.53-9.005-4.578-18.191-6.776-27.196-1.988-9.096-3.885-18.040-5.752-26.714-3.283-17.589-6.355-34.033-9.005-48.128-2.409-14.185-4.698-26.142-6.355-34.545-1.717-8.433-2.711-13.252-2.711-13.252s-4.698 19.366-5.873 48.821c-0.632 14.728-0.422 31.985 1.476 50.477 0.873 9.216 2.048 18.733 3.825 28.311 1.867 9.608 3.945 19.366 6.716 28.943 2.53 9.638 5.933 19.095 9.517 28.311 3.704 9.156 8.132 17.92 12.408 26.323 4.939 8.312 9.939 16.474 14.999 22.829 0.934 1.235 1.837 2.409 2.771 3.614-8.523 14.848-19.366 28.552-33.641 39.304-4.247 3.524-9.517 6.776-15.691 9.698-8.704-10.3-18.462-18.824-29.816-24.666-41.623-21.293-78.878-38.701-78.878-38.701h-0.632c-0.090 0.060-28.040 17.257-69.692 38.701-9.788 5.060-16.926 12.198-24.727 20.721 0 0-3.433-3.644-8.584-10.3-5.18-6.656-12.529-16.264-20.239-28.19-1.928-2.982-4.006-6.024-5.813-9.306-0.813-1.536-2.138-3.403-2.65-4.759-0.904-1.807-1.837-3.674-2.771-5.542-4.247-7.469-6.987-15.059-10.451-22.799-3.192-8.102-6.445-16.474-9.096-25.269-2.861-8.704-5.602-17.589-7.951-26.654-2.53-9.005-4.578-18.191-6.776-27.196-1.958-9.096-3.885-18.040-5.752-26.714-3.283-17.589-6.355-34.033-9.005-48.128-2.409-14.185-4.698-26.142-6.325-34.545-1.747-8.433-2.741-13.252-2.741-13.252s-4.698 19.366-5.873 48.821c-0.632 14.728-0.452 31.985 1.476 50.477 0.904 9.216 2.048 18.733 3.855 28.311 1.867 9.608 3.915 19.366 6.686 28.943 2.53 9.638 5.933 19.095 9.517 28.311 3.704 9.156 8.132 17.92 12.408 26.323 4.939 8.312 9.969 16.474 14.999 22.829 0.934 1.205 1.837 2.379 2.711 3.524-8.493 14.728-19.305 28.28-33.461 38.972 3.343 22.197 5.060 56.712 5.060 108.062 0 81.92-53.158 148.239-118.633 148.239-44.664 0-73.096-31.624-73.096-31.624-27.678-27.166-45.568-69.271-45.568-116.766 0-51.2 1.777-85.715 5.060-107.821-35.78-26.473-60.657-83.336-58.88-108.424 150.92-346.142 485.647-330.692 485.647-330.692 214.408 0 398.517 134.295 478.75 317.801-1.867-5.903-3.765-11.354-5.752-16.203 4.096 8.885 8.222 17.739 11.866 26.895zM199.258 480.467l-62.554 31.864 32.467 51.17c8.794-4.488 20.39-7.048 30.088-7.048s21.112 2.59 29.937 7.138l32.346-51.26-62.283-31.864zM199.258 567.266c-59.573 0-85.203 80.595-80.113 105.743 65.536 56.952 123.482 53.007 123.482 53.007s10.391-32.256 37.105-71.198c-4.728-38.4-43.61-87.552-80.474-87.552zM498.236 537.389c41.231 0 121.464-18.372 121.464 104.99 0 83.727-54.423 151.733-121.464 151.733-67.132 0-121.464-68.006-121.464-151.733 0-121.374 80.173-104.99 121.464-104.99zM397.011 664.456c-1.988 7.71-1.235 15.42 1.928 20.751 0.753 1.476 2.409 3.373 4.638 4.488 12.68-17.619 45.658-13.854 74.12 8.463 7.198 5.662 13.523 12.137 18.643 18.703 0.632-0.090 1.295-0.151 1.928-0.331 2.771-0.512 5.331-1.476 8.162-2.379 2.56-1.235 5.361-2.199 7.831-3.765 2.53-1.295 4.819-3.102 7.108-4.668 2.048-1.807 4.367-3.524 6.054-5.481 1.837-1.807 3.524-3.795 4.879-5.662 1.476-1.807 2.53-3.704 3.584-5.331 1.054-1.656 1.958-3.132 2.47-4.427 1.235-2.53 1.958-4.006 1.958-4.006s-0.271 1.566-0.723 4.427c-0.181 1.476-0.602 3.132-1.054 5.060-0.542 1.958-1.054 4.277-2.048 6.566-0.813 2.379-1.988 4.819-3.283 7.469-1.235 2.62-3.042 5.18-4.759 7.981-2.048 2.53-3.945 5.331-6.415 7.8-2.259 2.62-5.060 4.849-7.77 7.198-2.56 1.807-5.271 3.795-8.162 5.361 1.265 2.53 2.229 5.18 3.072 7.62 10.15-4.608 20.6-10.421 28.853-18.703 30.449-30.449 18.462-65.777 41.924-42.406 3.704 3.704 6.716 7.529 9.065 11.415 0.873 0 1.717 0.060 2.349-0.060 3.162-0.843 5.24-3.283 6.355-5.271 3.223-5.331 3.945-13.041 1.988-20.751-2.952-11.505-10.481-18.281-16.595-19.034l-4.939-0.663-1.295-4.819c-11.656-42.225-43.038-87.191-78.577-87.191-35.479 0-66.831 44.966-78.547 87.191l-1.295 4.819-4.939 0.663c-5.903 0.753-13.553 7.56-16.504 18.974z" />
<glyph unicode="&#xe92c;" glyph-name="join-team-01" d="M512 952.938c-278.422 0-504.938-226.516-504.938-504.938s226.516-504.938 504.938-504.938c278.422 0 504.938 226.516 504.938 504.938s-226.516 504.938-504.938 504.938zM512-35.752c-266.741 0-483.752 217.010-483.752 483.752s217.010 483.752 483.752 483.752c266.741 0 483.752-217.010 483.752-483.752s-217.010-483.752-483.752-483.752zM679.3 513.487c0 46.631-53.643 109.356-126.051 127.873 30.148 20.127 50.96 60.487 50.96 96.701 0 50.882-41.271 92.259-92.238 92.259-50.96 0-92.457-41.377-92.457-92.259 0-36.214 20.812-76.369 51.186-96.701-72.436-18.517-126.023-81.433-126.023-127.873 0.014-54.922 334.622-54.922 334.622 0zM180.492 232.812h394.939v-28.114h-394.939v28.114zM180.506 296.166h663.001v-28.107h-663.001v28.107zM180.506 359.519h663.001v-28.093h-663.001v28.093z" />
<glyph unicode="&#xe92d;" glyph-name="team-icon-01" d="M620.856 421.732c79.649 53.114 134.589 159.655 134.589 255.288 0 134.367-108.945 243.623-243.578 243.623-134.5 0-244.068-109.256-244.068-243.623 0-95.633 54.94-201.594 135.123-255.288-191.221-48.929-332.711-214.995-332.711-337.608 0-145.052 883.489-145.052 883.489 0 0.045 123.103-141.624 288.723-332.845 337.608z" />
<glyph unicode="&#xe92e;" glyph-name="alert-01" horiz-adv-x="1123" d="M1085.209 198.606l-382.2 661.983c-62.414 109.353-220.309 109.353-282.508 0l-382.398-661.983c-62.431-109.353 15.277-245.231 141.246-245.231h763.243c126.002 0.017 205.031 137.233 142.617 245.231zM561.532 100.253c-33.23 0-60.845 27.615-60.845 60.862s27.615 60.862 60.845 60.862c33.247 0 60.878-27.615 59.524-62.414 1.553-31.694-27.615-59.309-59.524-59.309zM616.993 493.684c-2.692-47.137-5.615-94.092-8.308-141.262-1.338-15.261-1.338-29.184-1.338-44.23-1.354-24.923-20.893-44.247-45.816-44.247s-44.23 17.986-45.799 42.909c-4.046 73.431-8.308 145.507-12.354 218.938-1.338 19.307-2.692 38.862-4.261 58.153 0 31.893 17.97 58.153 47.154 66.461 29.201 6.953 58.17-6.97 70.739-34.585 4.278-9.662 5.615-19.324 5.615-30.555-1.354-30.753-4.294-61.258-5.632-91.582z" />
<glyph unicode="&#xe92f;" glyph-name="appraisal-01" horiz-adv-x="819" d="M634.971 378.004c-17.727 134.167-93.776 294.116-186.55 392.852-17.727 18.751-36.818 35.317-58.846 48.879-20.526 12.789-46.376-4.506-43.554-28.604 6.281-53.498-6.007-103.788-29.605-152.599-70.11-145.317-210.239-324.949-85.22-481.212 72.545-90.453 218.681-114.893 311.159-44.851 78.256 59.301 105.563 168.118 92.615 265.535z" />
<glyph unicode="&#xe930;" glyph-name="decommissioning-01" horiz-adv-x="934" d="M835.692 177.826c-1.437 49.763-11.408 128.701-57.398 165.565-28.762 23.031-69.56 26.337-121.299 9.755l-11.21-3.575-277.163 277.145 3.593 11.192c16.582 51.739 13.294 92.537-9.773 121.317-36.846 46.026-115.784 55.943-165.547 57.38l115.263-115.263-99.957-99.957-113.718 113.736c4.276-79.082 25.636-134.018 62.626-160.229 48.002-33.99 109.873-11.12 110.484-10.869l11.641 4.419 8.875-8.803 275.438-275.438-4.527-11.695c-0.216-0.575-23.067-62.446 10.905-110.43 26.211-36.99 81.148-58.35 160.229-62.644l-113.053 113.053 99.975 99.939 114.616-114.598zM326.8 116.817l16.564-78.273c-179.99 54.182-304.272 219.711-304.272 409.456h-17.965c0-198.908 131.072-372.269 320.476-427.655l-38.391-72.74c43.583 28.456 110.754 51.703 163.894 63.398-47.93 25.78-106.173 66.524-140.306 105.813zM592.573 875.655l38.391 72.722c-43.583-28.438-110.736-51.685-163.876-63.398 47.912-25.78 106.137-66.506 140.288-105.813l-16.564 78.291c179.99-54.2 304.272-219.711 304.272-409.456h17.965c0 198.908-131.072 372.269-320.476 427.655z" />
<glyph unicode="&#xe931;" glyph-name="decrees-01" horiz-adv-x="826" d="M793.897 715.71l-223.149 214.33c-5.037 4.823-11.875 7.63-18.927 7.63h-408.328c-66.147 0-120.039-53.876-120.039-120.039v-739.262c0-66.147 53.876-120.039 120.039-120.039h538.839c66.131 0 120.039 53.892 120.039 120.039v617.637c-0.248 7.432-3.237 14.485-8.473 19.704zM578.973 846.798h0.198l128.446-123.64h-62.91c-36.187 0-65.734 29.349-65.734 65.734v57.906zM747.834 78.369c0-36.187-29.349-65.734-65.734-65.734h-538.607c-36.187 0-65.751 29.349-65.751 65.734v739.493c0 36.17 29.349 65.734 65.751 65.734h381.192v-94.522c0-66.131 53.876-120.023 120.039-120.023h103.127v-590.683zM184.039 221.795h457.745v-57.212h-457.745v57.212zM126.811 135.928h572.152v-57.212h-572.152v57.212zM272.070 536.493h57.212v-286.043h-57.212v286.043zM384.297 536.493h57.212v-286.043h-57.212v286.043zM496.508 536.493h57.228v-286.043h-57.228v286.043zM133.665 505.195l40.448-40.448 240.211 211.786 237.386-195.27 40.448 40.448-279.255 229.739z" />
<glyph unicode="&#xe932;" glyph-name="decrees-tooltip-icon-01" horiz-adv-x="1334" d="M467.984 902.656l288.551-166.695c7.882-4.608 18.277-1.722 22.699 6.16l8.27 14.445c4.639 7.882 1.939 18.091-5.942 22.714l-288.566 166.493c-7.897 4.624-18.091 1.939-22.714-5.958l-8.27-14.445c-4.624-7.882-1.924-18.292 5.973-22.714zM201.123 452.546l288.349-166.493c8.083-4.639 18.292-1.738 22.714 5.973l8.471 14.414c4.624 8.099 1.738 18.308-6.144 22.931l-288.566 166.478c-7.897 4.577-18.091 1.924-22.714-6.144l-8.285-14.445c-4.592-7.897-1.924-18.091 6.175-22.714zM1226.861 257.676l-577.303 299.318 77.576 134.361c4.639 7.897 1.908 18.106-5.973 22.714l-259.662 149.969c-8.083 4.608-18.292 1.722-22.916-6.191l-183.048-317.192c-4.624-7.913-1.924-18.308 5.973-22.73l259.662-149.938c7.897-4.67 18.292-1.939 22.714 5.911l77.777 134.609 547.856-350.596c7.664-4.763 17.703-2.436 22.311 5.632l41.581 72.176c4.608 7.897 1.722 17.703-6.547 21.954zM1318.074 215.474l-28.843 16.756c-7.913 4.468-18.308 1.722-22.947-6.16l-49.819-86.621c-4.639-7.897-1.939-18.091 5.942-22.73l28.874-16.493c8.083-4.624 18.277-1.955 22.916 6.16l49.85 86.373c4.639 7.944 1.939 18.339-5.973 22.714zM694.598 112.873h-34.63c4.437 4.856 7.339 11.202 7.339 18.292v27.384c0 15.189-12.335 27.524-27.539 27.524h-549.392c-15.205 0-27.524-12.335-27.524-27.524v-27.384c0-7.090 2.901-13.421 7.323-18.292h-34.661c-15.205 0-27.524-12.521-27.524-27.477v-109.956c0-14.972 12.319-27.477 27.524-27.477h659.068c15.205 0 27.539 12.521 27.539 27.477v109.956c0.016 14.972-12.319 27.477-27.524 27.477zM684.591 14.755c0-15.794-13.079-28.92-29.060-28.92h-578.436c-15.981 0-28.874 13.141-28.874 28.92v28.858c0 15.934 12.893 29.060 28.874 28.874h578.436c15.981 0 29.060-12.94 29.060-28.688v-29.044z" />
<glyph unicode="&#xe933;" glyph-name="development-01" horiz-adv-x="1001" d="M502.83 431.457c16.634 24.713 28.422 52.952 34.111 83.194h84.036v85.493h-84.036c-5.689 30.447-17.454 58.641-34.111 83.354l59.073 59.119-60.257 60.484-59.278-59.119c-24.758 16.68-52.975 28.422-83.399 34.361v83.831h-85.242v-83.831c-30.447-5.939-58.869-17.658-83.422-34.361l-59.051 59.119-60.484-60.257 59.051-59.324c-16.634-24.713-28.399-52.702-34.293-83.354h-83.831v-85.493h83.831c6.098-30.242 17.636-58.459 34.293-83.194l-59.051-59.301 60.484-60.302 59.051 59.324c24.553-16.885 52.975-28.626 83.422-34.497v-83.877h85.447v83.877c30.219 5.871 58.641 17.59 83.194 34.315l59.278-59.164 60.484 60.302-59.301 59.301zM316.325 464.361c-51.359 0-93.138 41.756-93.138 93.161 0 51.541 41.779 93.116 93.138 93.116s93.184-41.574 93.184-93.116c0-51.405-41.825-93.161-93.184-93.161zM989.548 233.165v64.944h-63.738c-4.278 23.211-13.198 44.487-26.010 63.329l44.851 44.851-45.807 46.126-44.897-45.079c-18.887 12.766-40.391 21.732-63.283 26.169v63.67h-64.967v-63.67c-23.165-4.437-44.669-13.426-63.283-26.169l-45.056 45.079-46.080-45.921 45.033-45.056c-12.766-18.842-21.686-40.346-26.123-63.556h-63.738v-64.717h63.738c4.437-23.165 13.38-44.669 26.123-63.283l-45.033-45.102 46.080-45.83 44.851 45.056c18.66-12.789 40.186-21.732 63.329-26.169v-63.989h64.944v63.989c23.12 4.278 44.442 13.198 63.329 26.010l44.851-44.897 46.034 45.83-45.033 45.102c12.766 18.614 21.686 40.391 25.964 63.283h63.92zM757.965 194.799c-38.935 0-70.793 31.653-70.793 70.793 0 38.98 31.858 70.702 70.793 70.702 39.162 0 70.838-31.744 70.838-70.702 0-39.14-31.698-70.793-70.838-70.793z" />
<glyph unicode="&#xe934;" glyph-name="exploration-01" horiz-adv-x="819" d="M798.083 84.161h-41.643v211.558c0 5.598-4.528 10.081-10.081 10.081h-46.99v161.655l4.915-2.002c2.526-1.070 5.166-1.593 7.714-1.593 7.942 0 15.451 4.71 18.66 12.493l28.74 69.427c2.048 4.938 2.048 10.49 0 15.428s-6.007 8.897-10.923 10.923l-436.338 180.656c15.906 30.401 30.265 61.372 42.576 92.092 4.142 10.263-0.774 21.914-11.014 26.169l-172.373 71.339c-10.217 4.255-21.936-0.546-26.26-10.718-42.667-99.92-70.224-211.331-86.63-350.527-1.070-8.988 3.959-17.59 12.311-21.026l73.865-30.583c8.351-3.459 18-0.933 23.575 6.144 32.040 40.664 59.711 78.802 84.56 116.713l87.222-36.136-4.278-29.696-13.016-89.998-59.506-412.399h-242.028c-11.173 0-20.207-9.057-20.207-20.23v-91.637c0-11.105 9.011-20.23 20.207-20.23h776.966c11.15 0 20.184 9.102 20.184 20.23v91.637c-0.023 11.15-9.057 20.23-20.207 20.23zM459.594 442.516l-70.975 52.929 56.434 47.696 14.541-100.625zM469.515 373.84l21.663-150.096-116.782 89.611 95.118 60.484zM382.18 598.778l40.368-16.703-48.742-41.21 8.374 57.913zM362.155 460.015l73.751-55.068-89.975-57.207 16.225 112.276zM337.055 286.254l121.060-92.934-150.232-108.84 29.173 201.774zM382.93 84.161l116.213 84.218 12.197-84.218h-128.41zM658.978 305.801h-46.967c-5.598 0-10.103-4.483-10.103-10.081v-211.558h-45.852l-59.529 412.399-8.442 58.345 170.894-70.747v-178.358z" />
<glyph unicode="&#xe935;" glyph-name="glasshour-01" horiz-adv-x="614" d="M563.946 48.962v118.652c0 41.033-16.004 79.594-44.997 108.632l-124.489 124.46c-12.624 12.639-19.573 29.447-19.573 47.309s6.949 34.655 19.573 47.28l124.489 124.489c28.994 29.023 44.997 67.599 44.997 108.617v118.652c19.953 6.729 34.377 25.629 34.377 47.835-0.015 27.838-22.645 50.483-50.498 50.483h-481.236c-27.867 0-50.498-22.645-50.498-50.498 0-22.206 14.409-41.106 34.377-47.835v-118.667c0-41.019 15.989-79.609 45.012-108.617l124.475-124.489c12.624-12.624 19.588-29.418 19.588-47.28s-6.963-34.67-19.588-47.309l-124.475-124.46c-29.023-29.023-45.012-67.599-45.012-108.632v-118.652c-19.953-6.744-34.377-25.629-34.377-47.835 0-27.824 22.63-50.469 50.498-50.469h481.236c27.838 0 50.483 22.645 50.483 50.498 0 22.206-14.409 41.092-34.363 47.835zM48.318 894.874c0 10.064 8.192 18.271 18.271 18.271h481.236c10.064 0 18.256-8.207 18.256-18.271s-8.207-18.271-18.256-18.271h-481.236c-10.094 0-18.271 8.207-18.271 18.271zM82.681 167.614c0 32.417 12.624 62.903 35.562 85.826l124.489 124.489c18.71 18.71 29.023 43.593 29.023 70.085 0 26.463-10.313 51.346-29.023 70.071l-124.489 124.489c-22.923 22.923-35.562 53.409-35.562 85.826v116.005h449.024v-116.005c0-32.417-12.624-62.903-35.562-85.826l-124.489-124.489c-18.71-18.725-29.008-43.608-29.008-70.071 0-26.478 10.299-51.361 29.008-70.085l124.489-124.489c22.923-22.923 35.562-53.409 35.562-85.826v-116.005h-449.024v116.005zM547.825-17.13h-481.236c-10.079 0-18.271 8.207-18.271 18.256 0 10.064 8.192 18.256 18.271 18.256h481.236c10.064 0 18.256-8.192 18.256-18.256 0-10.050-8.192-18.256-18.256-18.256zM410.434 287.525c-3.013 3.028-7.109 4.71-11.396 4.71h-75.717v221.945c6.085 10.84 13.634 20.816 22.543 29.711l81.774 81.774c4.593 4.593 5.968 11.527 3.482 17.569-2.487 6.027-8.368 9.933-14.892 9.933h-218.039c-6.51 0-12.405-3.92-14.907-9.933-2.487-6.042-1.097-12.961 3.496-17.569l81.759-81.774c8.909-8.88 16.486-18.9 22.557-29.711v-221.93h-75.732c-4.272 0-8.353-1.682-11.396-4.71l-59.904-59.919c-16.033-16.033-24.854-37.347-24.854-60.006v-63.371c0-8.88 7.212-16.091 16.121-16.091h343.757c8.88 0 16.121 7.197 16.121 16.091v63.371c0 22.66-8.836 43.973-24.854 60.006l-59.919 59.904z" />
<glyph unicode="&#xe936;" glyph-name="liscensing-01" horiz-adv-x="819" d="M797.377 720.498l-227.1 218.135c-5.166 4.915-12.083 7.782-19.297 7.782h-415.585c-67.334 0-122.175-54.841-122.175-122.175v-752.435c0-67.334 54.841-122.175 122.175-122.175h548.432c67.288 0 122.175 54.841 122.175 122.175v628.599c-0.228 7.578-3.3 14.768-8.624 20.093zM578.628 853.891h0.182l130.753-125.838h-63.989c-36.841 0-66.924 29.878-66.924 66.901v58.937zM750.478 71.782c0-36.841-29.855-66.901-66.879-66.901h-548.204c-36.841 0-66.901 29.855-66.901 66.901v752.663c0 36.818 29.855 66.901 66.901 66.901h387.982v-96.21c0-67.311 54.795-122.152 122.175-122.152h104.926v-601.202zM189.759 590.586h298.462c20.23 0 31.016 8.055 31.016 18.022 0 9.944-10.809 17.977-31.016 17.977h-298.462c-20.23 0-30.97-8.055-30.97-17.977 0-9.967 10.763-18.022 30.97-18.022zM189.759 452.779h298.462c20.23 0 31.016 8.055 31.016 18.022s-10.809 18.022-31.016 18.022h-298.462c-20.23 0-30.97-8.055-30.97-18.022 0-9.99 10.763-18.022 30.97-18.022zM189.759 314.994h149.231c20.343 0 31.084 8.055 31.084 17.977 0 9.967-10.763 18.045-31.084 18.045h-149.231c-20.23 0-30.97-8.078-30.97-18.045 0-9.899 10.763-17.977 30.97-17.977zM623.411 523.617c-3.072-1.001-5.643-3.072-7.282-5.894l-160.677-278.3c-1.024-1.729-1.593-3.641-1.729-5.643l-5.962-100.443c-0.319-4.87 2.185-9.466 6.303-11.924 4.233-2.412 9.466-2.298 13.517 0.432l83.991 55.433c1.684 1.115 3.072 2.571 4.050 4.278l160.745 278.369c1.593 2.753 2.094 6.053 1.411 9.216-0.523 2.298-6.053 23.097-38.707 41.984-32.677 18.864-53.385 13.198-55.66 12.493zM500.053 166.309c-4.278 3.459-9.148 6.69-14.359 9.694-5.211 3.049-10.49 5.598-15.61 7.578l1.82 30.083c6.713-0.865 16.612-3.573 29.241-10.877 12.584-7.282 19.957-14.541 24.053-19.866l-25.145-16.612zM410.965 143.918c-35.021 0-64.148 8.806-98.941 3.095 0 2.025-0.66 4.71-2.844 8.42-6.485 11.059-14.791 14.268-23.029 12.902-0.592 1.274-1.092 2.594-1.843 3.937-2.207 3.55-5.211 5.302-8.67 6.076 9.762 16.885 15.974 34.77 9.58 49.311-1.911 4.346-7.464 6.622-11.833 6.804-18.409 0.66-34.224-18.637-46.034-30.242-29.65-28.968-55.683-61.918-80.987-94.731-10.832-14.040 13.107-27.739 23.78-13.858 22.437 29.059 46.126 57.207 71.566 83.558-6.144-10.035-12.675-19.979-19.456-29.468-9.83-15.201 13.608-28.035 23.757-13.926 2.412 3.686 5.53 6.372 8.92 8.647-0.66-1.684-1.343-3.368-2.094-5.052 0.091 0 0.091-0.068 0.137-0.068-0.569-1.115-1.070-2.207-1.479-3.209-6.212-15.474 16.794-22.505 25.168-10.672 2.139 3.026 4.050 6.212 5.825 9.557-0.091-2.344-0.182-5.37 0.319-8.556 1.297-7.396 9.785-9.671 15.474-11.992 5.461-2.367 12.083 2.094 16.612 4.278 28.035 13.608 66.014-2.367 96.097-2.367 17.704-0.023 17.704 27.557-0.023 27.557z" />
</font>
</defs>
</svg>
